<?xml version="1.0" encoding="utf-8"?>
<!-- Generator: Adobe Illustrator 18.0.0, SVG Export Plug-In . SVG Version: 6.00 Build 0)  -->
<!DOCTYPE svg PUBLIC "-//W3C//DTD SVG 1.1//EN" "http://www.w3.org/Graphics/SVG/1.1/DTD/svg11.dtd">
<svg version="1.1" id="Layer_1" xmlns="http://www.w3.org/2000/svg" xmlns:xlink="http://www.w3.org/1999/xlink" x="0px" y="0px"
	 viewBox="0 0 447.5 401.7" enable-background="new 0 0 447.5 401.7" xml:space="preserve">
<path fill="#F4F4F4" d="M427.5,209.1l-32.9,27H45c-30,1.5-45-27-45-27c7.5-30,45-33,45-33h349.6L427.5,209.1z"/>
<path fill="#81CDCA" d="M256.5,123.2L218.1,176h-45.7C172.4,176,232.7,128.5,256.5,123.2z"/>
<path fill="#74B5B0" d="M256.4,176h-38.3l38.3-52.8c3.6-0.8,6.4-0.7,7.9,0.8C276.4,135,256.4,176,256.4,176z"/>
<path fill="#93C8E0" d="M15.4,198.5c0,0,12-13.5,25-13.5v14L15.4,198.5z"/>
<path fill="#81CDCA" d="M411.9,191.1l14.6,14.5c-0.2,0.6-0.3,0.9-0.3,0.9l-30.1-31.1c0,0,29.9-61.5,46.6-61.6L411.9,191.1z"/>
<path fill="#74B5B0" d="M426.6,205.6l-14.6-14.5l30.9-77.2C458.6,113.8,429.9,196.3,426.6,205.6z"/>
<path fill="#81CDCA" d="M160.5,236.1H198l49.5,75C247.5,311.1,229.5,323.1,160.5,236.1z"/>
<path fill="#74B5B0" d="M198,236.1l49.5,75c0,0,16.5-10.5-19.5-76.5L198,236.1z"/>
<path fill="#E8E8E8" d="M427.5,209.1l-32.9,27H45c-30,1.5-45-27-45-27H427.5z"/>
</svg>
