<?xml version="1.0" encoding="utf-8"?>
<!-- Generator: Adobe Illustrator 18.0.0, SVG Export Plug-In . SVG Version: 6.00 Build 0)  -->
<!DOCTYPE svg PUBLIC "-//W3C//DTD SVG 1.1//EN" "http://www.w3.org/Graphics/SVG/1.1/DTD/svg11.dtd">
<svg version="1.1" id="Layer_1" xmlns="http://www.w3.org/2000/svg" xmlns:xlink="http://www.w3.org/1999/xlink" x="0px" y="0px"
	 viewBox="0 142 648 722" enable-background="new 0 142 648 722" xml:space="preserve">
<path fill="#F4F4F4" d="M76.7,396.2h506.2c0,0,54.3,4.3,65.2,47.8c0,0-21.7,41.3-65.2,39.1H76.7l-47.6-39.1L76.7,396.2z"/>
<path fill="#81CDCA" d="M398.4,396h-66.2l-55.6-76.5C311.1,327.2,398.4,396,398.4,396z"/>
<path fill="#74B5B0" d="M265.4,320.7c2.2-2.2,6.2-2.3,11.4-1.2l55.5,76.5h-55.5C276.8,396,247.9,336.6,265.4,320.7z"/>
<path fill="#93C8E0" d="M589.6,429.3V409c18.8,0,36.2,19.5,36.2,19.5L589.6,429.3z"/>
<path fill="#81CDCA" d="M7,305.9c24.2,0.1,67.5,89.2,67.5,89.2l-43.6,45c0,0-0.1-0.4-0.4-1.3l21.1-21L7,305.9z"/>
<path fill="#74B5B0" d="M6.8,306.1l44.7,111.8l-21.1,21C25.6,425.4-16,305.9,6.8,306.1z"/>
<path fill="#81CDCA" d="M289.7,591.6L361.4,483h54.3C315.8,609,289.7,591.6,289.7,591.6z"/>
<path fill="#74B5B0" d="M317.9,480.9c-52.1,95.6-28.2,110.8-28.2,110.8L361.4,483L317.9,480.9z"/>
<path fill="#E8E8E8" d="M648.1,443.9c0,0-21.7,41.3-65.2,39.1H76.7l-47.6-39.1H648.1z"/>
</svg>
