<?xml version="1.0" encoding="utf-8"?>
<!-- Generator: Adobe Illustrator 18.0.0, SVG Export Plug-In . SVG Version: 6.00 Build 0)  -->
<!DOCTYPE svg PUBLIC "-//W3C//DTD SVG 1.1//EN" "http://www.w3.org/Graphics/SVG/1.1/DTD/svg11.dtd">
<svg version="1.1" id="Layer_1" xmlns="http://www.w3.org/2000/svg" xmlns:xlink="http://www.w3.org/1999/xlink" x="0px" y="0px"
	 viewBox="0 0 263.8 296.4" enable-background="new 0 0 263.8 296.4" xml:space="preserve">
<rect x="23.7" y="114" fill="#F27C77" width="109.5" height="181.5"/>
<rect x="23.7" y="77.5" fill="#E8E8E8" width="108.7" height="36.5"/>
<path d="M71.1,112.4c0,0,52-102,59-108s22-5,36-2s30,6,30,6l-1,12c0,0-41-8-46-8s-9-6-16,8s-52,94-52,94l-14,1L71.1,112.4z"/>
<path fill="#A9D28F" d="M77.9,76.3l-0.4,0.2l-53.8,1l-1.6,26.4l-18,8.9c-17.7-42.6,26.2-58.5,45.4-58.8S77.9,76.3,77.9,76.3z"/>
<rect x="66.7" y="219.1" transform="matrix(-0.2138 -0.9769 0.9769 -0.2138 -130.6306 353.7874)" fill="#F49A9B" width="20.6" height="20.6"/>
<rect x="102.7" y="243.8" transform="matrix(-0.2138 -0.9769 0.9769 -0.2138 -111.03 418.8954)" fill="#F49A9B" width="20.6" height="20.6"/>
<rect x="94.1" y="217.8" transform="matrix(-0.2138 -0.9769 0.9769 -0.2138 -96.1508 378.8704)" fill="#F49A9B" width="20.6" height="20.6"/>
<rect x="40.8" y="236.1" transform="matrix(-0.89 -0.4559 0.4559 -0.89 -9.9845 498.3626)" fill="#F49A9B" width="28.7" height="28.7"/>
<rect x="73.4" y="239.4" transform="matrix(0.1446 -0.9895 0.9895 0.1446 -175.9627 303.8964)" fill="#F49A9B" width="28.7" height="28.7"/>
<path fill="#E8E8E8" d="M86.1,47.6l74.4,110c0,0,11.1,108.8-1.1,117.7c-12.2,8.9-24.4,21.1-24.4,21.1l87.7-1.1
	c0,0-21.1-18.9-26.7-23.3s-6.7-111.1-6.7-111.1l74.4-115.5L86.1,47.6z"/>
<polygon fill="#CFCECE" points="106.1,76.9 132.4,114 97.1,86.9 102.1,76.4 "/>
<path fill="#82CECA" d="M103.1,62.4l63,90c0,0,10,11,20-2s56-87,56-87L103.1,62.4z"/>
<path fill="#E56161" d="M226.9,39.4c0,0-10-0.8-17.7,23.1c5.2,0.8,9.2,5.4,9.2,10.9c0,6.1-4.9,11-11,11s-11-4.9-11-11
	c0-6.1,4.9-11,11-11c0,0,4-20.5,19-25L226.9,39.4z"/>
<polygon fill="#E4F0D7" points="23.7,77.5 22.1,103.9 77.5,76.5 "/>
</svg>
