<?xml version="1.0" encoding="utf-8"?>
<!-- Generator: Adobe Illustrator 18.0.0, SVG Export Plug-In . SVG Version: 6.00 Build 0)  -->
<!DOCTYPE svg PUBLIC "-//W3C//DTD SVG 1.1//EN" "http://www.w3.org/Graphics/SVG/1.1/DTD/svg11.dtd">
<svg version="1.1" id="Layer_1" xmlns="http://www.w3.org/2000/svg" xmlns:xlink="http://www.w3.org/1999/xlink" x="0px" y="0px"
	 viewBox="-120.2 9 873 873" enable-background="new -120.2 9 873 873" xml:space="preserve">
<g>
	<circle fill="#F2999A" cx="316.4" cy="445.5" r="436.5"/>
	<g>
		<g>
			<path fill="#FFFFFF" d="M38.5,217.7c0,0-0.4,0.5-1.2,1.5c-0.8,1-1.9,2.5-3.4,4.4c-1.5,1.9-3.3,4.2-5.3,6.8
				c-2,2.6-4.1,5.8-6.5,9.1c-9.5,13.3-21.1,31.9-30.6,51.6c-2.3,5-4.5,9.9-6.7,14.9c-2.1,4.9-3.9,9.9-5.8,14.7
				c-1,2.4-1.8,4.7-2.6,7.1c-0.8,2.3-1.6,4.6-2.3,6.8c-0.7,2.2-1.5,4.4-2.1,6.5c-0.6,2.1-1.2,4.2-1.7,6.1c-1.1,3.9-2.1,7.5-3,10.7
				c-0.7,3.2-1.4,6.1-1.9,8.4c-1.1,4.7-1.7,7.3-1.7,7.3l-24.8-5.2c0,0,0.6-2.8,1.8-7.8c0.6-2.5,1.3-5.5,2.1-9
				c1-3.4,2.1-7.3,3.2-11.5c0.6-2.1,1.2-4.3,1.9-6.6c0.7-2.3,1.5-4.6,2.3-6.9c0.8-2.4,1.6-4.8,2.5-7.3c0.8-2.5,1.7-5.1,2.8-7.6
				c2-5.1,4-10.4,6.3-15.7c2.4-5.2,4.8-10.6,7.2-15.9c10.1-21.1,22.5-41,32.7-55.3c2.6-3.6,4.8-6.9,7-9.7c2.2-2.8,4.1-5.2,5.7-7.3
				c1.6-2,2.8-3.6,3.7-4.7c0.8-1.1,1.3-1.6,1.3-1.6L38.5,217.7z"/>
		</g>
		<path fill="#FFFFFF" d="M-40.7,399.6c0,0-0.3,2.2-0.7,5.4c-0.2,1.6-0.5,3.5-0.7,5.5c-0.2,2-0.3,4.2-0.5,6.4
			c-0.3,4.3-0.7,8.7-0.9,12c-0.1,3.3-0.1,5.5-0.1,5.5l-25.4-0.9c0,0,0.1-2.3,0.2-5.8c0.3-3.5,0.6-8.2,1-12.8
			c0.2-2.3,0.4-4.7,0.5-6.8c0.3-2.2,0.5-4.2,0.7-5.9c0.4-3.5,0.7-5.8,0.7-5.8L-40.7,399.6z"/>
		<path fill="#FFFFFF" d="M81.3,174.4c0,0-1.7,1.4-4.1,3.6c-2.5,2.1-5.7,5.1-8.8,8.1c-1.6,1.5-3.2,3-4.6,4.4c-0.7,0.7-1.5,1.4-2.1,2
			c-0.7,0.7-1.3,1.3-1.8,1.9c-2.3,2.4-3.8,3.9-3.8,3.9l-18.3-17.5c0,0,1.6-1.7,4-4.2c0.6-0.6,1.3-1.3,2-2c0.7-0.7,1.5-1.4,2.3-2.2
			c1.6-1.5,3.3-3.1,5-4.7c3.4-3.2,6.7-6.5,9.4-8.7c2.7-2.3,4.4-3.8,4.4-3.8L81.3,174.4z"/>
		<g>
			<g>
				<path fill="#FFFFFF" d="M131.6,137.9c0,0-1.9,1-4.6,2.9c-2.8,1.8-6.4,4.1-10.1,6.5c-3.7,2.4-7.1,5-9.8,6.9
					c-2.7,1.9-4.4,3.2-4.4,3.2l-15.1-20.4c0,0,1.9-1.4,4.8-3.4c2.9-2,6.6-4.8,10.5-7.4c3.9-2.5,7.9-5,10.8-6.9c2.9-1.9,5-3.1,5-3.1
					L131.6,137.9z"/>
				<path fill="#FFFFFF" d="M323.7,61.3l-0.4,25.4c0,0-0.7,0-2-0.1c-1.3,0-3.1-0.2-5.5-0.1c-2.4,0.1-5.3,0.1-8.6,0.2
					c-1.7,0-3.4,0.1-5.3,0.1c-1.9,0-3.8,0.1-5.9,0.3c-16.4,0.9-38.1,3.6-59.4,8.4c-21.3,4.8-42.1,11.7-57.2,18.1
					c-0.9,0.4-1.9,0.7-2.8,1.1c-0.9,0.4-1.8,0.8-2.6,1.2c-1.7,0.8-3.3,1.5-4.8,2.2c-3,1.4-5.7,2.6-7.9,3.5c-2.2,1-3.8,1.9-5,2.5
					c-1.1,0.6-1.7,0.9-1.7,0.9l-11.4-22.7c0,0,0.7-0.3,1.9-1c1.2-0.6,3-1.6,5.3-2.7c2.3-1,5.2-2.3,8.4-3.8c1.6-0.7,3.3-1.5,5.2-2.3
					c0.9-0.4,1.8-0.8,2.8-1.3c1-0.4,2-0.8,3-1.2c16.2-6.8,38.4-14.2,61.2-19.4c22.8-5.2,46.1-8.1,63.6-9c2.2-0.2,4.3-0.3,6.3-0.3
					c2-0.1,3.9-0.1,5.7-0.2c3.6-0.1,6.6-0.2,9.2-0.2c2.6-0.1,4.6,0.1,5.9,0.1C323,61.3,323.7,61.3,323.7,61.3z"/>
				<path fill="#FFFFFF" d="M388.6,68L383.9,93c0,0-2.1-0.4-5.4-0.9c-1.6-0.3-3.5-0.6-5.5-1c-2-0.3-4.2-0.5-6.4-0.8
					c-4.3-0.5-8.7-1.1-11.9-1.5c-1.6-0.2-3-0.2-3.9-0.3c-0.9-0.1-1.5-0.1-1.5-0.1l2.2-25.3c0,0,0.6,0,1.6,0.1c1,0.1,2.5,0.2,4.2,0.4
					c3.5,0.5,8.1,1,12.7,1.6c2.3,0.3,4.7,0.5,6.8,0.9c2.2,0.4,4.2,0.7,5.9,1C386.3,67.6,388.6,68,388.6,68z"/>
			</g>
			<g>
				<path fill="#FFFFFF" d="M323.7,61.3l-0.4,25.4c0,0-0.7,0-2-0.1c-1.3,0-3.1-0.2-5.5-0.1c-2.4,0.1-5.3,0.1-8.6,0.2
					c-1.7,0-3.4,0.1-5.3,0.1c-1.9,0-3.8,0.1-5.9,0.3c-16.4,0.9-38.1,3.6-59.4,8.4c-21.3,4.8-42.1,11.7-57.2,18.1
					c-0.9,0.4-1.9,0.7-2.8,1.1c-0.9,0.4-1.8,0.8-2.6,1.2c-1.7,0.8-3.3,1.5-4.8,2.2c-3,1.4-5.7,2.6-7.9,3.5c-2.2,1-3.8,1.9-5,2.5
					c-1.1,0.6-1.7,0.9-1.7,0.9l-11.4-22.7c0,0,0.7-0.3,1.9-1c1.2-0.6,3-1.6,5.3-2.7c2.3-1,5.2-2.3,8.4-3.8c1.6-0.7,3.3-1.5,5.2-2.3
					c0.9-0.4,1.8-0.8,2.8-1.3c1-0.4,2-0.8,3-1.2c16.2-6.8,38.4-14.2,61.2-19.4c22.8-5.2,46.1-8.1,63.6-9c2.2-0.2,4.3-0.3,6.3-0.3
					c2-0.1,3.9-0.1,5.7-0.2c3.6-0.1,6.6-0.2,9.2-0.2c2.6-0.1,4.6,0.1,5.9,0.1C323,61.3,323.7,61.3,323.7,61.3z"/>
			</g>
			<path fill="#FFFFFF" d="M131.6,137.9c0,0-1.9,1-4.6,2.9c-2.8,1.8-6.4,4.1-10.1,6.5c-3.7,2.4-7.1,5-9.8,6.9
				c-2.7,1.9-4.4,3.2-4.4,3.2l-15.1-20.4c0,0,1.9-1.4,4.8-3.4c2.9-2,6.6-4.8,10.5-7.4c3.9-2.5,7.9-5,10.8-6.9c2.9-1.9,5-3.1,5-3.1
				L131.6,137.9z"/>
			<path fill="#FFFFFF" d="M388.6,68L383.9,93c0,0-2.1-0.4-5.4-0.9c-1.6-0.3-3.5-0.6-5.5-1c-2-0.3-4.2-0.5-6.4-0.8
				c-4.3-0.5-8.7-1.1-11.9-1.5c-1.6-0.2-3-0.2-3.9-0.3c-0.9-0.1-1.5-0.1-1.5-0.1l2.2-25.3c0,0,0.6,0,1.6,0.1c1,0.1,2.5,0.2,4.2,0.4
				c3.5,0.5,8.1,1,12.7,1.6c2.3,0.3,4.7,0.5,6.8,0.9c2.2,0.4,4.2,0.7,5.9,1C386.3,67.6,388.6,68,388.6,68z"/>
		</g>
		<g>
			<g>
				<path fill="#FFFFFF" d="M452.6,85.8l-8.9,23.8c0,0-0.5-0.2-1.4-0.6c-0.9-0.4-2.2-0.8-3.7-1.3c-3.1-1-7.2-2.5-11.4-3.8
					c-1-0.4-2.1-0.7-3.1-1c-1-0.3-2-0.6-3-0.9c-2-0.6-3.8-1.1-5.4-1.5c-3.1-0.9-5.2-1.5-5.2-1.5l6.5-24.5c0,0,2.3,0.6,5.6,1.6
					c1.7,0.5,3.7,1,5.8,1.6c1,0.3,2.1,0.6,3.2,0.9c1.1,0.3,2.2,0.7,3.3,1.1c4.4,1.5,8.8,3,12.2,4.1c1.7,0.6,3,1,4,1.4
					C452.1,85.6,452.6,85.8,452.6,85.8z"/>
				<path fill="#FFFFFF" d="M623.4,212l-20.1,15.5c0,0-1.7-2.1-4.6-5.9c-0.7-0.9-1.6-2-2.5-3.1c-0.9-1.1-1.9-2.3-3-3.5
					c-2.2-2.5-4.6-5.4-7.3-8.5c-11-12.1-26.5-27.5-43.7-41.1c-17.1-13.6-35.4-25.6-49.8-33.4c-3.5-2.1-6.9-3.7-9.9-5.2
					c-3-1.5-5.5-2.8-7.7-3.9c-2.1-1.1-3.9-1.8-5-2.4c-1.2-0.5-1.8-0.8-1.8-0.8l10.6-23.1c0,0,0.7,0.3,1.9,0.9
					c1.2,0.6,3.1,1.3,5.4,2.5c2.3,1.2,5,2.6,8.2,4.2c3.2,1.7,6.8,3.4,10.6,5.6c15.4,8.4,35.1,21.2,53.3,35.8
					c4.7,3.5,9,7.4,13.4,11.2c2.2,1.9,4.4,3.7,6.4,5.6c2,1.9,4.1,3.9,6,5.8c2,1.9,3.9,3.7,5.8,5.6c1.9,1.8,3.6,3.8,5.4,5.5
					c1.7,1.8,3.4,3.6,5,5.3c1.6,1.7,3.2,3.3,4.6,5c2.9,3.3,5.5,6.3,7.8,9c1.2,1.4,2.3,2.6,3.2,3.8c0.9,1.2,1.8,2.3,2.6,3.3
					C621.6,209.7,623.4,212,623.4,212z"/>
				<path fill="#FFFFFF" d="M658.6,266.9l-22.4,11.9c0,0-0.3-0.5-0.7-1.3c-0.4-0.8-1-2.1-1.9-3.5c-1.6-2.8-3.8-6.6-6-10.4
					c-0.5-0.9-1.1-1.9-1.6-2.8c-0.6-0.9-1.2-1.8-1.7-2.7c-1.1-1.7-2.1-3.3-3-4.7c-1.8-2.8-2.9-4.6-2.9-4.6l21.2-14
					c0,0,1.3,2,3.1,4.9c0.9,1.5,2,3.2,3.2,5c0.6,0.9,1.2,1.9,1.8,2.9c0.6,1,1.2,2,1.7,3c2.3,4.1,4.7,8.1,6.4,11.1
					c0.9,1.5,1.6,2.8,2,3.7C658.4,266.4,658.6,266.9,658.6,266.9z"/>
			</g>
			<g>
				<path fill="#FFFFFF" d="M623.4,212l-20.1,15.5c0,0-1.7-2.1-4.6-5.9c-0.7-0.9-1.6-2-2.5-3.1c-0.9-1.1-1.9-2.3-3-3.5
					c-2.2-2.5-4.6-5.4-7.3-8.5c-11-12.1-26.5-27.5-43.7-41.1c-17.1-13.6-35.4-25.6-49.8-33.4c-3.5-2.1-6.9-3.7-9.9-5.2
					c-3-1.5-5.5-2.8-7.7-3.9c-2.1-1.1-3.9-1.8-5-2.4c-1.2-0.5-1.8-0.8-1.8-0.8l10.6-23.1c0,0,0.7,0.3,1.9,0.9
					c1.2,0.6,3.1,1.3,5.4,2.5c2.3,1.2,5,2.6,8.2,4.2c3.2,1.7,6.8,3.4,10.6,5.6c15.4,8.4,35.1,21.2,53.3,35.8
					c4.7,3.5,9,7.4,13.4,11.2c2.2,1.9,4.4,3.7,6.4,5.6c2,1.9,4.1,3.9,6,5.8c2,1.9,3.9,3.7,5.8,5.6c1.9,1.8,3.6,3.8,5.4,5.5
					c1.7,1.8,3.4,3.6,5,5.3c1.6,1.7,3.2,3.3,4.6,5c2.9,3.3,5.5,6.3,7.8,9c1.2,1.4,2.3,2.6,3.2,3.8c0.9,1.2,1.8,2.3,2.6,3.3
					C621.6,209.7,623.4,212,623.4,212z"/>
			</g>
			<path fill="#FFFFFF" d="M452.6,85.8l-8.9,23.8c0,0-0.5-0.2-1.4-0.6c-0.9-0.4-2.2-0.8-3.7-1.3c-3.1-1-7.2-2.5-11.4-3.8
				c-1-0.4-2.1-0.7-3.1-1c-1-0.3-2-0.6-3-0.9c-2-0.6-3.8-1.1-5.4-1.5c-3.1-0.9-5.2-1.5-5.2-1.5l6.5-24.5c0,0,2.3,0.6,5.6,1.6
				c1.7,0.5,3.7,1,5.8,1.6c1,0.3,2.1,0.6,3.2,0.9c1.1,0.3,2.2,0.7,3.3,1.1c4.4,1.5,8.8,3,12.2,4.1c1.7,0.6,3,1,4,1.4
				C452.1,85.6,452.6,85.8,452.6,85.8z"/>
			<path fill="#FFFFFF" d="M658.6,266.9l-22.4,11.9c0,0-0.3-0.5-0.7-1.3c-0.4-0.8-1-2.1-1.9-3.5c-1.6-2.8-3.8-6.6-6-10.4
				c-0.5-0.9-1.1-1.9-1.6-2.8c-0.6-0.9-1.2-1.8-1.7-2.7c-1.1-1.7-2.1-3.3-3-4.7c-1.8-2.8-2.9-4.6-2.9-4.6l21.2-14c0,0,1.3,2,3.1,4.9
				c0.9,1.5,2,3.2,3.2,5c0.6,0.9,1.2,1.9,1.8,2.9c0.6,1,1.2,2,1.7,3c2.3,4.1,4.7,8.1,6.4,11.1c0.9,1.5,1.6,2.8,2,3.7
				C658.4,266.4,658.6,266.9,658.6,266.9z"/>
		</g>
		<g>
			<g>
				<path fill="#FFFFFF" d="M684.6,328.1l-24.1,7.9c0,0-0.7-2.1-1.7-5.2c-1.1-3.1-2.4-7.3-4.1-11.3c-1.6-4.1-3.2-8.1-4.4-11.2
					c-0.6-1.5-1.2-2.7-1.6-3.6c-0.4-0.9-0.6-1.4-0.6-1.4l23.3-10.2c0,0,0.2,0.5,0.7,1.5c0.4,0.9,1.1,2.2,1.7,3.9
					c1.3,3.3,3,7.6,4.7,12c1.8,4.3,3.2,8.8,4.3,12.1C683.8,325.9,684.6,328.1,684.6,328.1z"/>
				<path fill="#FFFFFF" d="M684.7,567.1c0,0-0.7,2.2-1.9,5.5c-1.2,3.3-2.5,7.8-4.3,12.1c-1.7,4.3-3.4,8.7-4.7,11.9
					c-0.6,1.6-1.3,3-1.7,3.9c-0.4,0.9-0.7,1.5-0.7,1.5l-23.3-10.1c0,0,0.2-0.5,0.6-1.4c0.4-0.9,1-2.1,1.6-3.6
					c1.2-3,2.8-7.1,4.4-11.2c1.7-4,2.9-8.2,4-11.3c1-3.1,1.8-5.2,1.8-5.2L684.7,567.1z"/>
				<path fill="#FFFFFF" d="M703.8,447.7c-0.1,5.9-0.3,11.7-0.4,17.4c0,2.9-0.3,5.7-0.5,8.5c-0.2,2.8-0.4,5.6-0.6,8.3
					c-0.3,5.5-1.1,10.7-1.7,15.7c-0.6,5-1.2,9.7-2,14c-0.8,4.3-1.5,8.3-2.1,11.8c-0.3,1.8-0.6,3.4-1,4.9c-0.3,1.5-0.7,2.9-0.9,4.1
					c-1.2,5-1.8,7.8-1.8,7.8l-24.6-6c0,0,0.6-2.7,1.7-7.3c0.3-1.2,0.6-2.4,0.9-3.8c0.3-1.4,0.7-2.9,0.9-4.6c0.6-3.3,1.2-7,2-11
					c0.8-4,1.3-8.4,1.9-13.1c0.6-4.7,1.3-9.6,1.6-14.7c0.2-2.6,0.4-5.1,0.6-7.8c0.2-2.6,0.5-5.3,0.5-8c0.1-5.4,0.3-10.8,0.4-16.3
					c0-21.9-2.3-43.7-5-59.8c-0.7-4-1.4-7.7-2-11c-0.3-1.7-0.6-3.2-0.9-4.6c-0.3-1.4-0.6-2.7-0.9-3.9c-1.1-4.7-1.7-7.3-1.7-7.3
					l24.6-6.1c0,0,0.7,2.8,1.8,7.8c0.3,1.2,0.6,2.6,0.9,4.1c0.4,1.5,0.7,3.1,1,4.9c0.6,3.5,1.3,7.5,2.1,11.8
					c0.3,2.2,0.9,4.4,1.1,6.8c0.3,2.3,0.6,4.8,0.9,7.2c0.6,5,1.4,10.2,1.7,15.7c0.2,2.7,0.4,5.5,0.6,8.3c0.2,2.8,0.5,5.7,0.5,8.5
					C703.5,436.1,703.6,441.9,703.8,447.7z"/>
			</g>
			<g>
				<path fill="#FFFFFF" d="M703.8,447.7c-0.1,5.9-0.3,11.7-0.4,17.4c0,2.9-0.3,5.7-0.5,8.5c-0.2,2.8-0.4,5.6-0.6,8.3
					c-0.3,5.5-1.1,10.7-1.7,15.7c-0.6,5-1.2,9.7-2,14c-0.8,4.3-1.5,8.3-2.1,11.8c-0.3,1.8-0.6,3.4-1,4.9c-0.3,1.5-0.7,2.9-0.9,4.1
					c-1.2,5-1.8,7.8-1.8,7.8l-24.6-6c0,0,0.6-2.7,1.7-7.3c0.3-1.2,0.6-2.4,0.9-3.8c0.3-1.4,0.7-2.9,0.9-4.6c0.6-3.3,1.2-7,2-11
					c0.8-4,1.3-8.4,1.9-13.1c0.6-4.7,1.3-9.6,1.6-14.7c0.2-2.6,0.4-5.1,0.6-7.8c0.2-2.6,0.5-5.3,0.5-8c0.1-5.4,0.3-10.8,0.4-16.3
					c0-21.9-2.3-43.7-5-59.8c-0.7-4-1.4-7.7-2-11c-0.3-1.7-0.6-3.2-0.9-4.6c-0.3-1.4-0.6-2.7-0.9-3.9c-1.1-4.7-1.7-7.3-1.7-7.3
					l24.6-6.1c0,0,0.7,2.8,1.8,7.8c0.3,1.2,0.6,2.6,0.9,4.1c0.4,1.5,0.7,3.1,1,4.9c0.6,3.5,1.3,7.5,2.1,11.8
					c0.3,2.2,0.9,4.4,1.1,6.8c0.3,2.3,0.6,4.8,0.9,7.2c0.6,5,1.4,10.2,1.7,15.7c0.2,2.7,0.4,5.5,0.6,8.3c0.2,2.8,0.5,5.7,0.5,8.5
					C703.5,436.1,703.6,441.9,703.8,447.7z"/>
			</g>
			<path fill="#FFFFFF" d="M684.6,328.1l-24.1,7.9c0,0-0.7-2.1-1.7-5.2c-1.1-3.1-2.4-7.3-4.1-11.3c-1.6-4.1-3.2-8.1-4.4-11.2
				c-0.6-1.5-1.2-2.7-1.6-3.6c-0.4-0.9-0.6-1.4-0.6-1.4l23.3-10.2c0,0,0.2,0.5,0.7,1.5c0.4,0.9,1.1,2.2,1.7,3.9
				c1.3,3.3,3,7.6,4.7,12c1.8,4.3,3.2,8.8,4.3,12.1C683.8,325.9,684.6,328.1,684.6,328.1z"/>
			<path fill="#FFFFFF" d="M684.7,567.1c0,0-0.7,2.2-1.9,5.5c-1.2,3.3-2.5,7.8-4.3,12.1c-1.7,4.3-3.4,8.7-4.7,11.9
				c-0.6,1.6-1.3,3-1.7,3.9c-0.4,0.9-0.7,1.5-0.7,1.5l-23.3-10.1c0,0,0.2-0.5,0.6-1.4c0.4-0.9,1-2.1,1.6-3.6c1.2-3,2.8-7.1,4.4-11.2
				c1.7-4,2.9-8.2,4-11.3c1-3.1,1.8-5.2,1.8-5.2L684.7,567.1z"/>
		</g>
		<g>
			<g>
				<path fill="#FFFFFF" d="M453.1,809.6c0,0-0.5,0.2-1.5,0.6c-0.9,0.4-2.3,0.9-4,1.4c-3.3,1.1-7.7,2.6-12.2,4.1
					c-1.1,0.4-2.2,0.7-3.3,1.1c-1.1,0.3-2.2,0.6-3.2,0.9c-2.1,0.6-4.1,1.2-5.8,1.6c-3.4,1-5.6,1.6-5.6,1.6l-6.6-24.5
					c0,0,2.1-0.6,5.2-1.5c1.6-0.5,3.4-1,5.4-1.5c1-0.3,2-0.6,3-0.9c1-0.3,2.1-0.7,3.1-1c4.1-1.4,8.3-2.8,11.4-3.9
					c1.6-0.5,2.8-1,3.7-1.3c0.9-0.4,1.4-0.6,1.4-0.6L453.1,809.6z"/>
				<path fill="#FFFFFF" d="M623.5,683.5c0,0-1.8,2.3-5,6.3c-3,4.1-8,9.5-13.7,16.2c-1.4,1.7-3,3.3-4.6,5c-1.6,1.7-3.3,3.5-5,5.3
					c-1.8,1.8-3.5,3.7-5.4,5.6c-1.9,1.8-3.9,3.7-5.8,5.6c-2,1.9-4,3.8-6,5.8c-2.1,1.9-4.3,3.7-6.4,5.7c-4.3,3.8-8.7,7.7-13.4,11.2
					c-18.2,14.6-37.9,27.4-53.3,35.8c-3.8,2.3-7.4,4-10.6,5.6c-3.2,1.6-5.9,3-8.2,4.2c-2.3,1.2-4.1,1.9-5.4,2.5
					c-1.3,0.6-1.9,0.9-1.9,0.9l-10.6-23c0,0,0.6-0.3,1.8-0.8c1.2-0.5,2.9-1.2,5-2.3c2.1-1.1,4.7-2.4,7.7-3.9
					c2.9-1.5,6.4-3.1,9.9-5.2c14.4-7.8,32.7-19.8,49.8-33.4c17.1-13.6,32.7-29,43.7-41.1c5.3-6.2,9.9-11.3,12.8-15.1
					c3-3.8,4.6-5.9,4.6-5.9L623.5,683.5z"/>
				<path fill="#FFFFFF" d="M658.8,628.3c0,0-0.3,0.5-0.7,1.4c-0.5,0.9-1.1,2.2-2,3.7c-1.8,3-4.1,7.1-6.4,11.1
					c-2.3,4.1-4.9,8-6.8,10.9c-1.9,2.9-3.1,4.9-3.1,4.9l-21.2-14c0,0,1.2-1.8,2.9-4.6c1.7-2.8,4.2-6.4,6.3-10.2
					c2.2-3.8,4.3-7.6,6-10.4c0.8-1.4,1.4-2.6,1.9-3.5c0.4-0.8,0.7-1.3,0.7-1.3L658.8,628.3z"/>
			</g>
			<g>
				<path fill="#FFFFFF" d="M623.5,683.5c0,0-1.8,2.3-5,6.3c-3,4.1-8,9.5-13.7,16.2c-1.4,1.7-3,3.3-4.6,5c-1.6,1.7-3.3,3.5-5,5.3
					c-1.8,1.8-3.5,3.7-5.4,5.6c-1.9,1.8-3.9,3.7-5.8,5.6c-2,1.9-4,3.8-6,5.8c-2.1,1.9-4.3,3.7-6.4,5.7c-4.3,3.8-8.7,7.7-13.4,11.2
					c-18.2,14.6-37.9,27.4-53.3,35.8c-3.8,2.3-7.4,4-10.6,5.6c-3.2,1.6-5.9,3-8.2,4.2c-2.3,1.2-4.1,1.9-5.4,2.5
					c-1.3,0.6-1.9,0.9-1.9,0.9l-10.6-23c0,0,0.6-0.3,1.8-0.8c1.2-0.5,2.9-1.2,5-2.3c2.1-1.1,4.7-2.4,7.7-3.9
					c2.9-1.5,6.4-3.1,9.9-5.2c14.4-7.8,32.7-19.8,49.8-33.4c17.1-13.6,32.7-29,43.7-41.1c5.3-6.2,9.9-11.3,12.8-15.1
					c3-3.8,4.6-5.9,4.6-5.9L623.5,683.5z"/>
			</g>
			<path fill="#FFFFFF" d="M658.8,628.3c0,0-0.3,0.5-0.7,1.4c-0.5,0.9-1.1,2.2-2,3.7c-1.8,3-4.1,7.1-6.4,11.1
				c-2.3,4.1-4.9,8-6.8,10.9c-1.9,2.9-3.1,4.9-3.1,4.9l-21.2-14c0,0,1.2-1.8,2.9-4.6c1.7-2.8,4.2-6.4,6.3-10.2
				c2.2-3.8,4.3-7.6,6-10.4c0.8-1.4,1.4-2.6,1.9-3.5c0.4-0.8,0.7-1.3,0.7-1.3L658.8,628.3z"/>
			<path fill="#FFFFFF" d="M453.1,809.6c0,0-0.5,0.2-1.5,0.6c-0.9,0.4-2.3,0.9-4,1.4c-3.3,1.1-7.7,2.6-12.2,4.1
				c-1.1,0.4-2.2,0.7-3.3,1.1c-1.1,0.3-2.2,0.6-3.2,0.9c-2.1,0.6-4.1,1.2-5.8,1.6c-3.4,1-5.6,1.6-5.6,1.6l-6.6-24.5
				c0,0,2.1-0.6,5.2-1.5c1.6-0.5,3.4-1,5.4-1.5c1-0.3,2-0.6,3-0.9c1-0.3,2.1-0.7,3.1-1c4.1-1.4,8.3-2.8,11.4-3.9
				c1.6-0.5,2.8-1,3.7-1.3c0.9-0.4,1.4-0.6,1.4-0.6L453.1,809.6z"/>
		</g>
		<g>
			<g>
				<path fill="#FFFFFF" d="M127.4,755.1c2.7,1.8,4.7,2.8,4.7,2.8l-13,21.8c0,0-2.1-1.1-5-3c-2.9-1.9-6.9-4.4-10.8-6.9
					c-2-1.2-3.9-2.6-5.7-3.9c-1.8-1.3-3.5-2.5-4.9-3.5c-2.9-2-4.8-3.4-4.8-3.4l15.1-20.4c0,0,1.8,1.3,4.4,3.2c1.3,0.9,2.9,2,4.6,3.2
					c1.7,1.2,3.4,2.5,5.3,3.6C120.9,751,124.6,753.3,127.4,755.1z"/>
				<path fill="#FFFFFF" d="M323.4,809l0.4,25.4c0,0-0.7,0-2.1,0.1c-1.4,0-3.4,0.2-5.9,0.1c-2.6-0.1-5.7-0.1-9.2-0.2
					c-1.8-0.1-3.7-0.1-5.7-0.2c-2-0.1-4.1-0.1-6.3-0.3c-17.5-0.9-40.8-3.8-63.5-9c-22.8-5.2-45.1-12.5-61.2-19.4
					c-4.1-1.5-7.7-3.3-11-4.8c-3.2-1.5-6.1-2.7-8.4-3.8c-2.3-1-4.1-2-5.3-2.6c-1.2-0.6-1.9-1-1.9-1l11.4-22.7c0,0,0.6,0.3,1.7,0.9
					c1.2,0.6,2.8,1.5,5,2.5c2.2,1,4.8,2.2,7.9,3.6c3,1.3,6.4,3,10.3,4.4c15.1,6.4,35.9,13.2,57.2,18.1c21.3,4.9,43,7.6,59.4,8.4
					c2,0.2,4,0.2,5.9,0.3c1.9,0.1,3.6,0.1,5.3,0.1c3.3,0.1,6.2,0.2,8.6,0.2c2.4,0.1,4.3-0.1,5.5-0.1C322.8,809,323.4,809,323.4,809z
					"/>
				<path fill="#FFFFFF" d="M389,827.5c0,0-2.3,0.4-5.8,1c-1.7,0.3-3.7,0.7-5.9,1c-2.1,0.4-4.5,0.6-6.8,0.9
					c-4.6,0.6-9.3,1.2-12.7,1.6c-1.7,0.3-3.2,0.3-4.2,0.4c-1,0.1-1.6,0.1-1.6,0.1l-2.3-25.3c0,0,0.5-0.1,1.5-0.1
					c1-0.1,2.3-0.1,3.9-0.4c3.2-0.4,7.6-1,11.9-1.5c2.2-0.3,4.3-0.5,6.4-0.9c2-0.4,3.9-0.7,5.5-1c3.2-0.6,5.4-0.9,5.4-0.9L389,827.5
					z"/>
			</g>
			<g>
				<path fill="#FFFFFF" d="M323.9,834.3c0,0-0.7,0-2.1,0.1c-1.4,0-3.4,0.2-5.9,0.1c-2.6-0.1-5.7-0.1-9.2-0.2
					c-1.8-0.1-3.7-0.1-5.7-0.2c-2-0.1-4.1-0.1-6.3-0.3c-17.5-0.9-40.8-3.8-63.5-9c-22.8-5.2-45.1-12.5-61.2-19.4
					c-4.1-1.5-7.7-3.3-11-4.8c-3.2-1.5-6.1-2.7-8.4-3.8c-2.3-1-4.1-2-5.3-2.6c-1.2-0.6-1.9-1-1.9-1l11.4-22.7c0,0,0.6,0.3,1.7,0.9
					c1.2,0.6,2.8,1.5,5,2.5c2.2,1,4.8,2.2,7.9,3.6c3,1.3,6.4,3,10.3,4.4c15.1,6.4,35.9,13.2,57.2,18.1c21.3,4.9,43,7.6,59.4,8.4
					c2,0.2,4,0.2,5.9,0.3c1.9,0.1,3.6,0.1,5.3,0.1c3.3,0.1,6.2,0.2,8.6,0.2c2.4,0.1,4.3-0.1,5.5-0.1c1.3,0,2-0.1,2-0.1L323.9,834.3z
					"/>
			</g>
			<path fill="#FFFFFF" d="M389,827.5c0,0-2.3,0.4-5.8,1c-1.7,0.3-3.7,0.7-5.9,1c-2.1,0.4-4.5,0.6-6.8,0.9
				c-4.6,0.6-9.3,1.2-12.7,1.6c-1.7,0.3-3.2,0.3-4.2,0.4c-1,0.1-1.6,0.1-1.6,0.1l-2.3-25.3c0,0,0.5-0.1,1.5-0.1
				c1-0.1,2.3-0.1,3.9-0.4c3.2-0.4,7.6-1,11.9-1.5c2.2-0.3,4.3-0.5,6.4-0.9c2-0.4,3.9-0.7,5.5-1c3.2-0.6,5.4-0.9,5.4-0.9L389,827.5z
				"/>
			<path fill="#FFFFFF" d="M132,757.9l-13,21.8c0,0-2.1-1.1-5-3c-2.9-1.9-6.9-4.4-10.8-6.9c-2-1.2-3.9-2.6-5.7-3.9
				c-1.8-1.3-3.5-2.5-4.9-3.5c-2.9-2-4.8-3.4-4.8-3.4l15.1-20.4c0,0,1.8,1.3,4.4,3.2c1.3,0.9,2.9,2,4.6,3.2c1.7,1.2,3.4,2.5,5.3,3.6
				c3.7,2.4,7.4,4.7,10.1,6.5C130.1,756.9,132,757.9,132,757.9z"/>
		</g>
		<g>
			<path fill="#FFFFFF" d="M38.6,678l-19.5,16.2c0,0-0.5-0.5-1.3-1.6c-0.8-1.1-2.1-2.7-3.7-4.7c-1.6-2-3.5-4.4-5.7-7.3
				c-2.2-2.8-4.4-6.1-7-9.7c-10.2-14.3-22.6-34.1-32.7-55.2c-2.4-5.3-4.8-10.6-7.2-15.9c-2.3-5.3-4.2-10.6-6.3-15.7
				c-0.5-1.3-1-2.5-1.5-3.8c-0.4-1.3-0.9-2.5-1.3-3.8c-0.8-2.5-1.7-4.9-2.5-7.3c-0.8-2.4-1.6-4.7-2.3-6.9c-0.6-2.3-1.3-4.5-1.9-6.6
				c-1.2-4.2-2.3-8.1-3.2-11.5c-0.8-3.5-1.5-6.5-2.1-9c-1.1-5-1.8-7.8-1.8-7.8l24.8-5.2c0,0,0.6,2.7,1.7,7.3
				c0.5,2.3,1.2,5.1,1.9,8.4c0.9,3.2,1.9,6.8,3,10.7c0.6,2,1.1,4,1.7,6.1c0.7,2.1,1.4,4.3,2.2,6.5c0.8,2.2,1.5,4.5,2.3,6.8
				c0.4,1.2,0.8,2.4,1.2,3.5c0.4,1.2,0.9,2.4,1.4,3.6c1.9,4.8,3.7,9.7,5.9,14.7c2.2,4.9,4.5,9.9,6.7,14.8
				C1,624.4,12.6,643,22.1,656.3c2.4,3.3,4.5,6.4,6.5,9.1c2.1,2.6,3.9,4.9,5.3,6.8c1.5,1.9,2.6,3.4,3.4,4.4
				C38.2,677.5,38.6,678,38.6,678z"/>
		</g>
		<path fill="#FFFFFF" d="M81.7,721.5l-16.6,19.2c0,0-1.8-1.5-4.4-3.8c-1.3-1.2-2.9-2.4-4.5-4c-1.6-1.5-3.3-3.1-5-4.7
			c-1.7-1.6-3.4-3.2-5-4.7c-1.6-1.5-3-2.9-4.2-4.2c-2.4-2.5-4-4.2-4-4.2l18.3-17.6c0,0,1.5,1.6,3.8,4c1.1,1.2,2.5,2.5,4,3.9
			c1.5,1.4,3.1,2.9,4.6,4.4c1.6,1.5,3.2,3,4.6,4.4c1.5,1.4,3,2.6,4.2,3.7C80,720.1,81.7,721.5,81.7,721.5z"/>
		<path fill="#FFFFFF" d="M-40.7,496.5l-25.2,3.4c0,0-0.3-2.3-0.7-5.8c-0.2-1.7-0.5-3.8-0.8-5.9c-0.2-2.2-0.4-4.5-0.6-6.9
			c-0.4-4.7-0.7-9.3-1-12.8c-0.1-1.7-0.1-3.2-0.1-4.2c0-1-0.1-1.6-0.1-1.6l25.4-1c0,0,0,0.5,0,1.5c0.1,0.9,0,2.3,0.1,3.9
			c0.3,3.3,0.6,7.6,0.9,12c0.2,2.2,0.3,4.4,0.5,6.4c0.3,2,0.5,3.9,0.7,5.5C-41,494.3-40.7,496.5-40.7,496.5z"/>
	</g>
</g>
<rect x="84.8" y="375.6" fill="#CC4E4E" width="225.4" height="373.6"/>
<rect x="84.8" y="300.5" fill="#E8E8E8" width="223.7" height="75.1"/>
<path d="M182.3,372.3c0,0,107-209.9,121.4-222.3c14.4-12.3,45.3-10.3,74.1-4.1c28.8,6.2,61.7,12.3,61.7,12.3l-2.1,24.7
	c0,0-84.4-16.5-94.7-16.5s-18.5-12.3-32.9,16.5s-107,193.5-107,193.5l-28.8,2.1L182.3,372.3z"/>
<path fill="#A9D28F" d="M196.3,298l-0.8,0.4l-110.7,2.1l-3.3,54.3l-37,18.3c-36.4-87.7,53.9-120.4,93.4-121S196.3,298,196.3,298z"/>
<rect x="173.3" y="592.2" transform="matrix(0.2138 0.9769 -0.9769 0.2138 752.1122 292.2467)" fill="#F49A9B" width="42.4" height="42.4"/>
<rect x="247.5" y="642.9" transform="matrix(0.2138 0.9769 -0.9769 0.2138 859.9999 259.6996)" fill="#F49A9B" width="42.4" height="42.4"/>
<rect x="229.6" y="589.3" transform="matrix(0.2138 0.9769 -0.9769 0.2138 793.545 234.9773)" fill="#F49A9B" width="42.4" height="42.4"/>
<rect x="119.9" y="626.7" transform="matrix(0.89 0.4559 -0.4559 0.89 315.5991 4.0385)" fill="#F49A9B" width="59.1" height="59.1"/>
<rect x="187.2" y="633.7" transform="matrix(-0.1446 0.9895 -0.9895 -0.1446 904.3719 544.7277)" fill="#F49A9B" width="59.1" height="59.1"/>
<path fill="#E8E8E8" d="M213.2,239l153.1,226.4c0,0,22.8,223.9-2.3,242.3C339,725.9,313.9,751,313.9,751l180.5-2.3
	c0,0-43.4-38.9-55-48c-11.5-9.1-13.8-228.7-13.8-228.7l153.1-237.7L213.2,239z"/>
<polygon fill="#CFCECE" points="254.4,299.3 308.5,375.6 235.8,319.8 246.1,298.2 "/>
<path fill="#82CECA" d="M248.2,269.4l129.7,185.2c0,0,20.6,22.6,41.2-4.1s115.3-179.1,115.3-179.1L248.2,269.4z"/>
<path fill="#E56161" d="M503,222.1c0,0-20.6-1.6-36.4,47.5c10.7,1.6,18.9,11.1,18.9,22.4c0,12.6-10.1,22.6-22.6,22.6
	c-12.6,0-22.6-10.1-22.6-22.6s10.1-22.6,22.6-22.6c0,0,8.2-42.2,39.1-51.5L503,222.1z"/>
<polygon fill="#E4F0D7" points="84.8,300.5 81.5,354.8 195.5,298.4 "/>
</svg>
