<?xml version="1.0" encoding="utf-8"?>
<!-- Generator: Adobe Illustrator 18.0.0, SVG Export Plug-In . SVG Version: 6.00 Build 0)  -->
<!DOCTYPE svg PUBLIC "-//W3C//DTD SVG 1.1//EN" "http://www.w3.org/Graphics/SVG/1.1/DTD/svg11.dtd">
<svg version="1.1" id="Layer_1" xmlns="http://www.w3.org/2000/svg" xmlns:xlink="http://www.w3.org/1999/xlink" x="0px" y="0px"
	 viewBox="9.4 117.4 366.8 366.8" enable-background="new 9.4 117.4 366.8 366.8" xml:space="preserve">
<circle fill="none" stroke="#FFFFFF" stroke-width="15.1618" stroke-miterlimit="10" cx="192.8" cy="300.8" r="175.8"/>
<path fill="#FFFFFF" d="M262.2,275.7v16.1c0,0.9-0.7,1.6-1.7,1.6h-24.3c-0.9,0-1.6-0.8-1.6-1.6v-16.1c0-0.9,0.7-1.7,1.6-1.7h24.3
	C261.4,274,262.2,274.7,262.2,275.7z"/>
<path fill="#FFFFFF" d="M262.2,275.7v16.1c0,0.9-0.7,1.6-1.7,1.6h-24.3c-0.9,0-1.6-0.8-1.6-1.6v-16.1c0-0.9,0.7-1.7,1.6-1.7h24.3
	C261.4,274,262.2,274.7,262.2,275.7z"/>
<path fill="#FFFFFF" d="M262.2,275.7v16.1c0,0.9-0.7,1.6-1.7,1.6h-24.3c-0.9,0-1.6-0.8-1.6-1.6v-16.1c0-0.9,0.7-1.7,1.6-1.7h24.3
	C261.4,274,262.2,274.7,262.2,275.7z"/>
<path fill="#FFFFFF" d="M281.4,247.5h-19.3c0.1-0.5,0.1-1,0.1-1.5v-27.7c0-6.6-5.4-12.1-12.1-12.1H148.6c-6.6,0-12.1,5.4-12.1,12.1
	V246c0,0.5,0,1,0.1,1.5h-32.4c-6.6,0-12.1,5.4-12.1,12.1v117.8c0,6.6,5.4,12.1,12.1,12.1h177.2c6.6,0,12.1-5.4,12.1-12.1V259.5
	C293.5,252.9,288.1,247.5,281.4,247.5z M156.1,230.6c0-4.5,3.7-8.4,8.4-8.4h69.9c4.5,0,8.4,3.7,8.4,8.4v16.8h-86.6L156.1,230.6
	L156.1,230.6z M272.6,297.9c0,1.6-1.3,2.9-2.9,2.9h-42.6c-1.6,0-2.9-1.3-2.9-2.9v-28.4c0-1.6,1.3-2.9,2.9-2.9h42.6
	c1.6,0,2.9,1.3,2.9,2.9V297.9z"/>
</svg>
