<?xml version="1.0" encoding="utf-8"?>
<!-- Generator: Adobe Illustrator 18.0.0, SVG Export Plug-In . SVG Version: 6.00 Build 0)  -->
<!DOCTYPE svg PUBLIC "-//W3C//DTD SVG 1.1//EN" "http://www.w3.org/Graphics/SVG/1.1/DTD/svg11.dtd">
<svg version="1.1" id="Layer_1" xmlns="http://www.w3.org/2000/svg" xmlns:xlink="http://www.w3.org/1999/xlink" x="0px" y="0px"
	 viewBox="0 0 375.3 375.3" enable-background="new 0 0 375.3 375.3" xml:space="preserve">
<circle fill="none" stroke="#FFFFFF" stroke-width="26" stroke-miterlimit="10" cx="187.6" cy="187.6" r="174.6"/>
<path fill="#FFFFFF" d="M256.5,162.6v16c0,0.9-0.7,1.6-1.7,1.6h-24.1c-0.9,0-1.6-0.8-1.6-1.6v-16c0-0.9,0.7-1.7,1.6-1.7h24.1
	C255.7,161,256.5,161.7,256.5,162.6z"/>
<path fill="#FFFFFF" d="M256.5,162.6v16c0,0.9-0.7,1.6-1.7,1.6h-24.1c-0.9,0-1.6-0.8-1.6-1.6v-16c0-0.9,0.7-1.7,1.6-1.7h24.1
	C255.7,161,256.5,161.7,256.5,162.6z"/>
<path fill="#FFFFFF" d="M256.5,162.6v16c0,0.9-0.7,1.6-1.7,1.6h-24.1c-0.9,0-1.6-0.8-1.6-1.6v-16c0-0.9,0.7-1.7,1.6-1.7h24.1
	C255.7,161,256.5,161.7,256.5,162.6z"/>
<path fill="#FFFFFF" d="M275.6,134.6h-19.2c0.1-0.5,0.1-1,0.1-1.5v-27.5c0-6.6-5.4-12-12-12H143.7c-6.6,0-12,5.4-12,12v27.5
	c0,0.5,0,1,0.1,1.5H99.6c-6.6,0-12,5.4-12,12v117c0,6.6,5.4,12,12,12h176c6.6,0,12-5.4,12-12v-117
	C287.6,140,282.2,134.6,275.6,134.6z M151.1,117.9c0-4.5,3.7-8.3,8.3-8.3h69.4c4.5,0,8.3,3.7,8.3,8.3v16.7h-86V117.9z M266.8,184.7
	c0,1.6-1.3,2.9-2.9,2.9h-42.3c-1.6,0-2.9-1.3-2.9-2.9v-28.2c0-1.6,1.3-2.9,2.9-2.9h42.3c1.6,0,2.9,1.3,2.9,2.9V184.7z"/>
</svg>
