<?xml version="1.0" encoding="utf-8"?>
<!-- Generator: Adobe Illustrator 18.0.0, SVG Export Plug-In . SVG Version: 6.00 Build 0)  -->
<!DOCTYPE svg PUBLIC "-//W3C//DTD SVG 1.1//EN" "http://www.w3.org/Graphics/SVG/1.1/DTD/svg11.dtd">
<svg version="1.1" id="Layer_1" xmlns="http://www.w3.org/2000/svg" xmlns:xlink="http://www.w3.org/1999/xlink" x="0px" y="0px"
	 viewBox="0 0 171.6 87.6" enable-background="new 0 0 171.6 87.6" xml:space="preserve">
<g>
	<path fill="#5CC2B5" stroke="#5CC2B5" stroke-width="2" stroke-miterlimit="10" d="M1,24c0-3.1,0.6-5.7,1.7-8.1
		c1.2-2.3,2.7-4.3,4.7-5.8c1.9-1.6,4.2-2.7,6.9-3.6c2.6-0.8,5.4-1.2,8.3-1.2c2.1,0,4.1,0.1,6,0.4c1.9,0.3,3.7,0.5,5.3,0.7
		c2.1,0.3,3.9,0.5,5.5,0.6c1.6,0.1,2.9,0.2,4.1,0.2c2.2,0,4.1-0.2,5.6-0.5c1.5-0.3,2.8-0.7,3.8-1.1c1-0.4,1.7-0.7,2.2-1.1
		c0.5-0.3,0.8-0.5,1-0.5s0.3,0.2,0.4,0.5c0.1,0.3,0.2,0.7,0.3,1.1c0.1,0.4,0.2,0.9,0.3,1.6C57,8,56.9,8.5,56.7,9
		c-0.2,0.5-0.4,0.9-0.6,1.1c-0.2,0.3-0.5,0.7-0.8,0.9c-0.4,0.3-1.4,0.7-3,1.1c-1.6,0.5-3.7,0.7-6.3,0.7c-1.6,0-3.3-0.1-5.2-0.3
		c-1.9-0.2-3.8-0.5-5.7-0.9c0,0.3,0,0.6-0.1,1c-0.1,0.4-0.2,0.8-0.3,1.2c-0.1,0-0.4,0.6-0.9,1.9c-0.6,1.3-1.2,2.9-2,4.9
		c-0.8,2-1.6,4.2-2.5,6.6c-0.9,2.4-1.7,4.7-2.4,7c-0.7,2.3-1.3,4.4-1.8,6.3c-0.5,1.9-0.7,3.3-0.7,4.3c-0.6-0.1-1.1-0.3-1.5-0.5
		c-0.4-0.2-0.8-0.4-1.1-0.8c-0.4-0.3-0.6-0.8-0.7-1.3c0.3-2.7,0.8-5.6,1.4-8.8c0.6-2.7,1.3-5.9,2.3-9.5c1-3.6,2.3-7.5,3.9-11.7
		c0.1-0.1,0.1-0.3,0.2-0.5c0.1-0.2,0.1-0.4,0.1-0.6c0-0.2,0.1-0.4,0.2-0.7c-1.4-0.3-2.8-0.5-4.2-0.7c-1.4-0.2-2.9-0.3-4.3-0.3
		c-2.3,0-4.5,0.3-6.6,1c-2.1,0.7-3.9,1.7-5.5,3c-1.6,1.3-2.9,3-3.8,4.9c-0.9,1.9-1.4,4.1-1.4,6.6c0,1.9,0.3,3.6,0.9,5
		c0.6,1.4,1.4,2.6,2.4,3.5c1,0.9,2.1,1.6,3.4,2.1c1.3,0.5,2.6,0.7,3.9,0.7c0.8,0,1.4-0.1,1.9-0.2c0.5-0.1,0.7-0.2,0.8-0.2
		c0.1,0,0.2,0,0.3,0.1c0.2,0.1,0.3,0.2,0.3,0.3c-0.1,0.2-0.3,0.4-0.7,0.6c-0.3,0.2-0.7,0.3-1.4,0.4c-0.6,0.1-1.6,0.2-2.8,0.2
		c-0.9,0-2-0.2-3.3-0.6c-1.3-0.4-2.6-1.1-3.8-2.1s-2.2-2.4-3.1-4.2C1.4,28.9,1,26.7,1,24z"/>
	<path fill="#5CC2B5" stroke="#5CC2B5" stroke-width="2" stroke-miterlimit="10" d="M61.4,31c0.3,0.2,0.4,0.3,0.4,0.3
		c0,0.1-0.2,0.7-0.6,1.7c-0.4,1-0.9,2.1-1.6,3.3c-0.7,1.2-1.6,2.2-2.5,3.2c-1,1-2.1,1.4-3.3,1.4c-1.1,0-2.1-0.5-3-1.6
		c-0.9-1-1.4-2.6-1.4-4.6c0-1.6,0.2-3.3,0.7-5.1c0.5-1.8,1-3.4,1.7-4.9c-0.6,0.1-1.2,0.2-1.8,0.3c-0.6,0.1-1.2,0.1-1.8,0.1
		c-0.3,0-0.5,0-0.8,0c-0.2,0-0.5,0-0.7-0.1c-1.1,2.2-1.9,3.9-2.5,5.2c-0.6,1.3-1,2.2-1.2,2.9c-0.3,0.7-0.4,1.1-0.6,1.3
		c-0.1,0.2-0.3,0.3-0.4,0.3c-0.5,0-0.7-0.1-0.7-0.4V34c0-0.1,0-0.1,0.1-0.1c0.5-1.1,1-2.6,1.7-4.5c0.6-1.9,1.1-3.7,1.5-5.3
		c-1-0.6-1.6-1.4-1.9-2.2c-0.3-0.9-0.5-1.6-0.5-2.2c0-0.6,0.1-1.1,0.2-1.4c0.1-0.3,0.4-0.5,0.8-0.5c0.1,0,0.3,0,0.5,0
		c0.2,0,0.5,0.1,0.8,0.2c1,0.2,1.8,0.4,2.5,0.6c0.7,0.2,1.1,0.3,1.1,0.3c-0.2,0.4-0.3,0.6-0.3,0.7c-0.1,0.1-0.1,0.2-0.3,0.3
		c0,0.1,0.1,0.2,0.4,0.3c0.3,0.1,0.6,0.1,0.9,0.2c0.4,0.1,0.8,0.1,1.2,0.1c0.5,0,0.9,0,1.3,0h2.4c0.4-0.6,0.7-1.2,1-1.8
		c0.3-0.5,0.5-1,0.8-1.6c0.2-0.6,0.4-1.1,0.5-1.5c0.1,0,0.3,0.1,0.7,0.4c0.4,0.3,0.8,0.6,1.3,1c0.5,0.4,0.9,0.8,1.3,1.3
		c0.4,0.5,0.6,1,0.6,1.5c0,0.8-0.3,1.9-1,3.2c-0.7,1.3-1.4,2.7-2.2,4.2c-0.8,1.5-1.5,3-2.2,4.6c-0.7,1.6-1,3.1-1,4.5
		c0,0.6,0.1,1.1,0.2,1.6c0.1,0.4,0.4,0.6,0.9,0.6c0.8,0,1.8-0.6,3-1.7c1.2-1.2,2.3-3,3.5-5.6l0.2-0.1C61.2,30.9,61.3,30.9,61.4,31z"
		/>
	<path fill="#5CC2B5" stroke="#5CC2B5" stroke-width="2" stroke-miterlimit="10" d="M83.2,30.9c0.3,0.2,0.4,0.3,0.4,0.3
		c0,0.2-0.2,0.9-0.6,2.1c-0.4,1.2-0.9,2.5-1.6,3.8c-0.7,1.4-1.5,2.6-2.5,3.7c-1,1.1-2.1,1.7-3.3,1.7c-0.8,0-1.7-0.4-2.6-1.1
		c-0.9-0.7-1.5-1.9-1.9-3.7c-0.2,0.3-0.5,0.6-0.8,1c-0.3,0.4-0.7,0.7-1.2,1c-0.5,0.3-1,0.6-1.7,0.8c-0.7,0.2-1.5,0.3-2.4,0.3
		c-1.3,0-2.4-0.3-3.2-0.9c-0.8-0.6-1.5-1.4-1.9-2.3c-0.5-0.9-0.8-1.8-0.9-2.8c-0.2-0.9-0.3-1.7-0.3-2.4c0-1.6,0.3-3.2,0.9-5
		c0.6-1.7,1.5-3.3,2.6-4.7c1.1-1.4,2.4-2.6,3.9-3.5c1.5-0.9,3.1-1.4,5-1.4c1.2,0,2.2,0.2,2.9,0.6c0.7,0.4,1.4,0.7,2,1.1
		c0.1-0.2,0.2-0.4,0.2-0.6c0-0.2,0.1-0.4,0.1-0.5c0.1,0,0.3,0.1,0.8,0.4c0.5,0.3,0.9,0.6,1.4,1s1,0.9,1.4,1.4c0.4,0.5,0.6,1,0.6,1.5
		c0,0.5-0.1,0.9-0.3,1.3s-0.4,0.9-0.6,1.3h-0.1c-0.5,0.8-0.9,1.8-1.5,2.8c-0.5,1-1,2-1.5,3c-0.5,1-0.8,2.1-1.1,3.1
		c-0.3,1.1-0.5,2.1-0.5,3.1c0,1.9,0.4,2.8,1.2,2.8c0.8,0,1.8-0.8,3.1-2.3c1.2-1.6,2.4-3.9,3.4-7.1c0-0.1,0.1-0.1,0.2-0.1
		C83,30.9,83.1,30.9,83.2,30.9z M71,36.2c0-1.9,0.3-3.9,0.9-5.9c0.6-2,1.2-3.8,1.9-5.3c-0.5-0.6-1-1-1.6-1.4
		C71.6,23.2,71,23,70.3,23c-1,0-1.9,0.3-2.9,0.9c-1,0.6-1.9,1.4-2.8,2.4c-0.8,1-1.5,2.1-2.1,3.3c-0.5,1.2-0.8,2.5-0.8,3.7
		c0,0.6,0,1.2,0.1,1.9c0.1,0.6,0.3,1.2,0.6,1.8c0.3,0.6,0.7,1,1.3,1.4C64.3,38.8,65,39,66,39c1,0,1.9-0.3,2.7-0.8
		C69.6,37.7,70.3,37,71,36.2z"/>
	<path fill="#5CC2B5" stroke="#5CC2B5" stroke-width="2" stroke-miterlimit="10" d="M101.9,31.9C101.9,32,101.9,32,101.9,31.9
		c0.1,0.1,0.1,0.2,0.1,0.2c0,0,0,0,0,0.1c0,0.1-0.1,0.2-0.3,0.3c-0.2,0.1-0.7,0.2-1.4,0.2c-0.5,0-0.9,0-1.4-0.1
		c-0.5-0.1-1-0.2-1.5-0.5c-0.3,0.8-0.7,1.7-1.3,2.8c-0.6,1-1.2,2-2,2.9c-0.8,0.9-1.6,1.7-2.6,2.3c-1,0.6-2,0.9-3.1,0.9
		c-2.5,0-4.3-0.7-5.3-2.2c-1.1-1.5-1.6-3.3-1.6-5.4c0-1.6,0.1-3.1,0.4-4.5c0.3-1.4,0.6-2.7,1.1-3.9c0.4-1.2,0.8-2.2,1.3-3.1
		c0.4-0.9,0.8-1.6,1.1-2.1c0.3-0.5,0.6-1.2,1.1-2.1c0.4-0.9,0.7-1.6,1-2.2c0.1,0,0.3,0.1,0.7,0.4c0.4,0.3,0.8,0.6,1.3,1
		c0.5,0.4,0.9,0.8,1.2,1.3c0.4,0.5,0.6,0.9,0.6,1.4c0,0.9-0.3,1.9-0.8,3c-0.6,1.1-1.2,2.2-1.9,3.4c-0.7,1.2-1.3,2.5-1.9,3.9
		c-0.6,1.4-0.8,2.8-0.8,4.3c0,1,0.2,1.9,0.6,2.5c0.4,0.7,1,1,2,1c0.8,0,1.6-0.2,2.4-0.7c0.7-0.5,1.4-1,2-1.7
		c0.6-0.7,1.2-1.4,1.7-2.2c0.5-0.8,0.9-1.5,1.3-2.2c-0.6-0.6-1.1-1.4-1.5-2.3c-0.4-0.9-0.6-2-0.6-3.1c0-0.3,0.1-0.9,0.2-1.7
		c0.1-0.8,0.3-1.7,0.6-2.5c0.3-0.8,0.8-1.6,1.4-2.2c0.6-0.6,1.4-1,2.4-1.1c0.7,0,1.3,0.3,1.6,0.9c0.3,0.6,0.5,1.4,0.5,2.4
		c0,0.8-0.1,1.8-0.3,2.8c-0.2,1-0.4,2-0.7,2.9s-0.5,1.8-0.8,2.5s-0.5,1.3-0.6,1.7c0.5,0.4,1.1,0.7,1.7,0.8c0.6,0.1,1.1,0.2,1.6,0.2
		c0.3,0,0.5,0,0.7,0C101.7,31.9,101.8,31.9,101.9,31.9z M96,29.7c0.5-1.1,0.9-2.5,1.4-4c0.5-1.5,0.8-2.8,0.8-3.7
		c0-0.8-0.3-1.3-0.8-1.3c-0.3,0-0.6,0.2-0.9,0.7c-0.3,0.5-0.5,1-0.8,1.6c-0.2,0.6-0.4,1.2-0.5,1.9c-0.1,0.7-0.2,1.1-0.2,1.5
		c0,0.6,0.1,1.2,0.3,1.7C95.5,28.5,95.7,29.1,96,29.7z"/>
	<path fill="#5CC2B5" stroke="#5CC2B5" stroke-width="2" stroke-miterlimit="10" d="M119.9,33.1c0.1,0.1,0.2,0.2,0.2,0.3
		c-0.8,1.6-1.8,3-3,4.2c-1,1-2.2,1.9-3.7,2.8c-1.5,0.8-3.2,1.3-5.2,1.3c-1.5,0-2.7-0.3-3.7-0.9s-1.8-1.4-2.5-2.3
		c-0.6-0.9-1.1-1.9-1.3-3c-0.3-1.1-0.4-2-0.4-2.9c0-1.9,0.3-3.8,0.9-5.6c0.6-1.8,1.5-3.4,2.5-4.8c1.1-1.4,2.3-2.5,3.6-3.4
		s2.8-1.3,4.2-1.3c1.8,0,3.2,0.5,4.2,1.5c1,1,1.5,2.1,1.5,3.3s-0.3,2.3-0.8,3.4c-0.5,1.1-1.2,2-2.1,2.8c-0.9,0.8-1.9,1.5-3.1,1.9
		c-1.2,0.5-2.4,0.7-3.7,0.7c-0.9,0-1.7-0.1-2.3-0.3c-0.6-0.2-1.1-0.4-1.4-0.7c-0.3,1-0.5,2-0.5,3.1c0,1.6,0.5,3,1.5,4.3
		c1,1.3,2.3,1.9,3.9,1.9c1.2,0,2.5-0.3,3.8-1c1.3-0.7,2.3-1.3,3-1.8c0.8-0.6,1.5-1.2,2-1.6c0.5-0.5,0.8-0.8,1.1-1.1
		c0.2-0.3,0.4-0.5,0.5-0.7c0.1-0.1,0.2-0.2,0.3-0.2C119.7,33,119.8,33.1,119.9,33.1z M106.5,25.2c-0.8,1.1-1.5,2.4-2.1,3.7
		c0.2,0.1,0.5,0.1,1.1,0.1c0.8,0,1.7-0.2,2.5-0.6c0.8-0.4,1.5-0.9,2.1-1.4c0.6-0.6,1.1-1.2,1.4-1.8c0.4-0.6,0.6-1.2,0.6-1.7
		c0-0.7-0.4-1.1-1.2-1.1c-0.6,0-1.2,0.2-2,0.6S107.3,24.2,106.5,25.2z"/>
	<path fill="#5CC2B5" stroke="#5CC2B5" stroke-width="2" stroke-miterlimit="10" d="M128.9,1c0.1,0,0.4,0.1,0.9,0.3
		c0.5,0.2,1.1,0.5,1.7,0.9c0.6,0.4,1.1,0.8,1.6,1.3c0.5,0.5,0.7,1,0.7,1.6c0,0.5-0.1,1-0.3,1.6c-0.2,0.5-0.4,1-0.6,1.5
		c-0.4,0.8-1,2.1-1.7,3.8c-0.8,1.7-1.6,3.5-2.5,5.6c-0.9,2.1-1.8,4.2-2.8,6.5c-1,2.3-1.8,4.4-2.6,6.5c-0.8,2.1-1.4,4-1.9,5.7
		c-0.5,1.7-0.7,3.1-0.7,4c0,0.1,0,0.3,0,0.4c0,0.2,0.1,0.3,0.2,0.3c0.3,0,1-0.5,2.2-1.5c1.2-1,2.6-3,4.4-5.9
		c0.5-0.5,0.8-0.7,0.9-0.7c0.1,0.1,0.2,0.2,0.2,0.4c0,0.5-0.3,1.4-1,2.6c-0.7,1.2-1.5,2.5-2.4,3.8c-0.9,1.3-1.9,2.4-2.9,3.3
		c-1,1-1.8,1.4-2.4,1.4c-0.2,0-0.5,0-0.8,0c-0.3,0-0.6-0.2-0.9-0.4c-0.3-0.2-0.6-0.6-0.8-1.1c-0.2-0.5-0.3-1.1-0.3-2
		c0-1.2,0.2-2.7,0.6-4.5c0.4-1.8,0.8-3.8,1.4-5.9s1.3-4.3,2-6.7c0.8-2.3,1.5-4.6,2.3-6.8c0.8-2.2,1.6-4.3,2.3-6.3
		c0.7-2,1.4-3.7,2-5.2c0.2-0.6,0.4-1.2,0.6-1.9c0.2-0.5,0.3-1,0.5-1.5C128.8,1.8,128.9,1.3,128.9,1z"/>
</g>
<g>
	<path fill="#5CC2B5" stroke="#5CC2B5" stroke-width="2" stroke-miterlimit="10" d="M68.1,61.2c-1.1-0.8-1.9-1.6-2.2-2.4
		c-0.4-0.8-0.6-1.5-0.6-2.2c0-0.6,0-1.1,0.1-1.5c0.1-0.4,0.3-0.8,0.6-1.2c0.3-0.4,0.8-0.8,1.4-1.3c0.6-0.5,1.5-1.1,2.5-1.8h0.1
		c1.1-0.7,2.4-1.4,3.7-2.1c1.4-0.7,2.8-1.4,4.3-2c1.5-0.6,3.1-1.1,4.7-1.5c1.7-0.4,3.3-0.6,5-0.6c2.3,0,4.5,0.4,6.7,1.2
		c2.1,0.8,4,2,5.6,3.5c1.6,1.5,2.8,3.3,3.8,5.5c0.9,2.1,1.4,4.4,1.4,7c0,3.6-0.8,6.9-2.3,10s-3.5,5.7-5.8,7.9
		c-2.4,2.2-5,3.9-7.9,5.1c-2.9,1.2-5.7,1.8-8.4,1.8c-1.1,0-2.4-0.1-3.7-0.3c-1.4-0.2-2.6-0.5-3.8-0.9c-1.2-0.4-2.1-0.9-2.9-1.6
		c-0.8-0.7-1.2-1.4-1.2-2.3c0-0.5,0.1-0.8,0.4-1.1c0.3-0.3,0.6-0.5,1.1-0.7c0.4-0.2,0.8-0.3,1.3-0.4s0.8-0.1,1.1-0.1
		c0-1.5,0.3-3.3,0.9-5.6c0.6-2.2,1.3-4.4,2.2-6.7c0.8-2.2,1.6-4.2,2.3-6.1c0.7-1.8,1.2-3.1,1.4-3.8l0.6-1.8c0.2-0.5,0.3-1,0.5-1.5
		c0.1-0.5,0.2-0.9,0.2-1.3c0.2,0.1,0.5,0.2,1,0.3c0.5,0.2,1,0.4,1.6,0.8c0.6,0.3,1.1,0.8,1.5,1.3c0.5,0.5,0.7,1.1,0.7,1.8
		c0,0.3,0,0.6-0.1,0.9c-0.1,0.3-0.2,0.7-0.3,1.1c-0.3,0.6-0.8,1.4-1.3,2.5c-0.5,1.1-1.1,2.3-1.7,3.7c-0.6,1.4-1.2,2.8-1.9,4.3
		c-0.6,1.5-1.2,2.9-1.7,4.3c-0.5,1.4-1,2.6-1.4,3.7c-0.4,1.1-0.6,1.9-0.7,2.4c0.9,0.3,1.7,0.6,2.3,0.9c0.6,0.3,1,0.5,1.1,0.5v-0.1
		l0.2,0.2c0.2,0.2,0.3,0.3,0.3,0.3c0,0.2-0.1,0.3-0.2,0.4c-0.1,0.1-0.2,0.1-0.3,0.1c-0.2,0-0.7-0.1-1.3-0.3
		c-0.6-0.2-1.4-0.5-2.2-0.7c-0.1,0.3-0.1,0.6-0.1,0.8c0,0.3,0,0.6,0,0.8c-0.5-0.1-0.9-0.2-1.4-0.4c-0.4-0.2-0.8-0.4-1.1-0.6
		c-0.4-0.2-0.6-0.6-0.8-1c-0.8,0.1-1.4,0.1-1.9,0.3c-0.5,0.1-0.7,0.3-0.7,0.6c0,0.4,0.3,0.8,0.9,1.1c0.6,0.3,1.3,0.6,2.2,0.9
		c0.9,0.3,1.8,0.5,2.8,0.6c1,0.1,1.9,0.2,2.7,0.2c1.8,0,3.5-0.2,5.4-0.7c1.8-0.5,3.6-1.2,5.3-2.2c1.7-1,3.2-2.2,4.7-3.6
		c1.4-1.4,2.6-3.1,3.6-5.1c1-1.5,1.7-3.1,2.2-4.8c0.5-1.7,0.7-3.4,0.7-5.1c0-2-0.3-3.9-1-5.5c-0.7-1.6-1.5-3-2.6-4.1
		c-1.1-1.1-2.4-1.9-3.8-2.5c-1.4-0.6-2.9-0.9-4.5-0.9c-1.3,0-2.5,0.1-3.7,0.3c-1.2,0.2-2.2,0.5-3.3,0.8c-2.9,1.2-5.3,2.5-7.1,3.7
		c-1.8,1.2-3.2,2.3-4.2,3.3c-1,1-1.7,1.8-2.2,2.4C68.5,60.9,68.2,61.2,68.1,61.2z"/>
	<path fill="#5CC2B5" stroke="#5CC2B5" stroke-width="2" stroke-miterlimit="10" d="M125,74.4c0.1,0.1,0.2,0.2,0.2,0.3
		c-0.8,1.6-1.8,3-3,4.2c-1,1-2.2,1.9-3.7,2.8c-1.5,0.8-3.2,1.3-5.2,1.3c-1.5,0-2.7-0.3-3.7-0.9s-1.8-1.4-2.5-2.3
		c-0.6-0.9-1.1-1.9-1.3-3c-0.3-1.1-0.4-2-0.4-2.9c0-1.9,0.3-3.8,0.9-5.6c0.6-1.8,1.5-3.4,2.5-4.8c1.1-1.4,2.3-2.5,3.6-3.4
		s2.8-1.3,4.2-1.3c1.8,0,3.2,0.5,4.2,1.5c1,1,1.5,2.1,1.5,3.3s-0.3,2.3-0.8,3.4c-0.5,1.1-1.2,2-2.1,2.8c-0.9,0.8-1.9,1.5-3.1,1.9
		c-1.2,0.5-2.4,0.7-3.7,0.7c-0.9,0-1.7-0.1-2.3-0.3c-0.6-0.2-1.1-0.4-1.4-0.7c-0.3,1-0.5,2-0.5,3.1c0,1.6,0.5,3,1.5,4.3
		c1,1.3,2.3,1.9,3.9,1.9c1.2,0,2.5-0.3,3.8-1c1.3-0.7,2.3-1.3,3-1.8c0.8-0.6,1.5-1.2,2-1.6c0.5-0.5,0.8-0.8,1.1-1.1
		c0.2-0.3,0.4-0.5,0.5-0.7c0.1-0.1,0.2-0.2,0.3-0.2C124.8,74.3,124.9,74.3,125,74.4z M111.6,66.5c-0.8,1.1-1.5,2.4-2.1,3.7
		c0.2,0.1,0.5,0.1,1.1,0.1c0.8,0,1.7-0.2,2.5-0.6c0.8-0.4,1.5-0.9,2.1-1.4c0.6-0.6,1.1-1.2,1.4-1.8c0.4-0.6,0.6-1.2,0.6-1.7
		c0-0.7-0.4-1.1-1.2-1.1c-0.6,0-1.2,0.2-2,0.6S112.4,65.5,111.6,66.5z"/>
	<path fill="#5CC2B5" stroke="#5CC2B5" stroke-width="2" stroke-miterlimit="10" d="M147.7,72.2c0.3,0.2,0.4,0.3,0.4,0.3
		c0,0.2-0.2,0.9-0.6,2.1c-0.4,1.2-0.9,2.5-1.6,3.8c-0.7,1.4-1.5,2.6-2.5,3.7c-1,1.1-2.1,1.7-3.3,1.7c-0.8,0-1.7-0.4-2.6-1.1
		c-0.9-0.7-1.5-1.9-1.9-3.7c-0.2,0.3-0.5,0.6-0.8,1c-0.3,0.4-0.7,0.7-1.2,1c-0.5,0.3-1,0.6-1.7,0.8c-0.7,0.2-1.5,0.3-2.4,0.3
		c-1.3,0-2.4-0.3-3.2-0.9c-0.8-0.6-1.5-1.4-1.9-2.3c-0.5-0.9-0.8-1.8-0.9-2.8s-0.3-1.7-0.3-2.4c0-1.6,0.3-3.2,0.9-5
		c0.6-1.7,1.5-3.3,2.6-4.7c1.1-1.4,2.4-2.6,3.9-3.5c1.5-0.9,3.1-1.4,5-1.4c1.2,0,2.2,0.2,2.9,0.6c0.7,0.4,1.4,0.7,2,1.1
		c0.1-0.2,0.2-0.4,0.2-0.6c0-0.2,0.1-0.4,0.1-0.5c0.1,0,0.3,0.1,0.8,0.4c0.5,0.3,0.9,0.6,1.4,1s1,0.9,1.4,1.4c0.4,0.5,0.6,1,0.6,1.5
		c0,0.5-0.1,0.9-0.3,1.3s-0.4,0.9-0.6,1.3h-0.1c-0.5,0.8-0.9,1.8-1.5,2.8c-0.5,1-1,2-1.5,3c-0.5,1-0.8,2.1-1.1,3.1
		c-0.3,1.1-0.5,2.1-0.5,3.1c0,1.9,0.4,2.8,1.2,2.8c0.8,0,1.8-0.8,3.1-2.3c1.2-1.6,2.4-3.9,3.4-7.1c0-0.1,0.1-0.1,0.2-0.1
		C147.5,72.2,147.6,72.2,147.7,72.2z M135.5,77.4c0-1.9,0.3-3.9,0.9-5.9c0.6-2,1.2-3.8,1.9-5.3c-0.5-0.6-1-1-1.6-1.4
		c-0.6-0.4-1.2-0.6-1.9-0.6c-1,0-1.9,0.3-2.9,0.9c-1,0.6-1.9,1.4-2.8,2.4c-0.8,1-1.5,2.1-2.1,3.3c-0.5,1.2-0.8,2.5-0.8,3.7
		c0,0.6,0,1.2,0.1,1.9c0.1,0.6,0.3,1.2,0.6,1.8c0.3,0.6,0.7,1,1.3,1.4c0.5,0.3,1.3,0.5,2.2,0.5c1,0,1.9-0.3,2.7-0.8
		C134.1,79,134.8,78.3,135.5,77.4z"/>
	<path fill="#5CC2B5" stroke="#5CC2B5" stroke-width="2" stroke-miterlimit="10" d="M156.3,42.3c0.1,0,0.4,0.1,0.9,0.3
		c0.5,0.2,1.1,0.5,1.7,0.9c0.6,0.4,1.1,0.8,1.6,1.3c0.5,0.5,0.7,1,0.7,1.6c0,0.5-0.1,1-0.3,1.6c-0.2,0.5-0.4,1-0.6,1.5
		c-0.4,0.8-1,2.1-1.7,3.8c-0.8,1.7-1.6,3.5-2.5,5.6c-0.9,2.1-1.8,4.2-2.8,6.5c-1,2.3-1.8,4.4-2.6,6.5c-0.8,2.1-1.4,4-1.9,5.7
		c-0.5,1.7-0.7,3.1-0.7,4c0,0.1,0,0.3,0,0.4c0,0.2,0.1,0.3,0.2,0.3c0.3,0,1-0.5,2.2-1.5c1.2-1,2.6-3,4.4-5.9
		c0.5-0.5,0.8-0.7,0.9-0.7c0.1,0.1,0.2,0.2,0.2,0.4c0,0.5-0.3,1.4-1,2.6c-0.7,1.2-1.5,2.5-2.4,3.8s-1.9,2.4-2.9,3.3
		c-1,1-1.8,1.4-2.4,1.4c-0.2,0-0.5,0-0.8,0c-0.3,0-0.6-0.2-0.9-0.4c-0.3-0.2-0.6-0.6-0.8-1.1c-0.2-0.5-0.3-1.1-0.3-2
		c0-1.2,0.2-2.7,0.6-4.5c0.4-1.8,0.8-3.8,1.4-5.9c0.6-2.1,1.3-4.3,2-6.7c0.8-2.3,1.5-4.6,2.3-6.8c0.8-2.2,1.6-4.3,2.3-6.3
		c0.7-2,1.4-3.7,2-5.2c0.2-0.6,0.4-1.2,0.6-1.9c0.2-0.5,0.3-1,0.5-1.5C156.3,43,156.3,42.6,156.3,42.3z"/>
	<path fill="#5CC2B5" stroke="#5CC2B5" stroke-width="2" stroke-miterlimit="10" d="M168.5,60.4c0.1,0.2,0.1,0.4,0.1,0.7
		c0,0.1,0,0.2,0,0.3c0,0.1-0.1,0.3-0.1,0.4c0.1,1.4,0.4,3.1,0.9,5.1c0.6,2,1,4.4,1.3,6.9c0,1.4-0.3,2.7-0.8,3.8
		c-0.6,1.1-1.3,2-2.2,2.8c-0.9,0.7-1.9,1.3-3.1,1.7c-1.1,0.4-2.3,0.6-3.4,0.6c-1.3,0-2.4-0.2-3.3-0.6c-0.9-0.4-1.7-1-2.3-1.6
		c-0.6-0.6-1.1-1.4-1.4-2.1c-0.3-0.8-0.5-1.5-0.5-2.2c0-0.8,0.2-1.6,0.6-2.2c0.4-0.6,1-1,1.8-1.1c0.5-0.8,1.1-1.8,1.7-3
		c0.6-1.1,1.3-2.3,1.9-3.4c0.6-1.2,1.2-2.3,1.8-3.3c0.6-1,1.1-2,1.5-2.8c0-0.2,0-0.5,0.1-0.9c0.1-0.4,0.2-0.8,0.4-1.2
		c0.2-0.4,0.4-0.7,0.6-1c0.2-0.3,0.4-0.4,0.6-0.4h-0.1c0,0.1,0.2,0.2,0.6,0.4c0.4,0.2,0.8,0.4,1.2,0.7c0.5,0.3,0.9,0.6,1.3,1.1
		C168,59.3,168.3,59.8,168.5,60.4z M160.5,79.5c0.7,0,1.3-0.1,2-0.3c0.6-0.2,1.3-0.6,1.8-1c0.6-0.4,1-0.9,1.4-1.6
		c0.3-0.6,0.5-1.3,0.5-2c0-0.7-0.1-1.5-0.4-2.4c-0.3-0.9-0.6-1.9-0.9-2.8c-0.3-1-0.7-1.9-1-2.9c-0.3-0.9-0.6-1.8-0.7-2.5
		c-1,1.4-2,2.9-3.1,4.4c-1.1,1.5-2,2.8-2.9,4c1.1-0.3,2-0.4,2.8-0.4c0.7,0,1,0,1-0.1c0.1,0,0.1,0,0.2,0.1c0.1,0.1,0.2,0.3,0.2,0.5
		c0,0.2-0.3,0.3-0.9,0.4c-0.6,0.1-1.3,0.3-2,0.5c-0.7,0.2-1.4,0.5-2,0.8c-0.6,0.3-0.9,0.8-0.9,1.5c0,0.3,0.1,0.7,0.4,1.1
		c0.3,0.4,0.6,0.8,1,1.2c0.4,0.4,0.9,0.7,1.6,1C159.2,79.3,159.8,79.5,160.5,79.5z"/>
</g>
</svg>
