<?xml version="1.0" encoding="utf-8"?>
<!-- Generator: Adobe Illustrator 18.0.0, SVG Export Plug-In . SVG Version: 6.00 Build 0)  -->
<!DOCTYPE svg PUBLIC "-//W3C//DTD SVG 1.1//EN" "http://www.w3.org/Graphics/SVG/1.1/DTD/svg11.dtd">
<svg version="1.1" id="Layer_1" xmlns="http://www.w3.org/2000/svg" xmlns:xlink="http://www.w3.org/1999/xlink" x="0px" y="0px"
	 viewBox="0 0 516 516" enable-background="new 0 0 516 516" xml:space="preserve">
<circle fill="#F39A9B" cx="258" cy="258" r="258"/>
<g>
	<g>
		<path fill="#FFFFFF" d="M93.8,123.4c0,0-0.3,0.3-0.7,0.9c-0.5,0.6-1.2,1.5-2,2.6c-0.9,1.1-1.9,2.5-3.2,4c-1.2,1.5-2.4,3.4-3.9,5.4
			c-5.6,7.9-12.5,18.9-18.1,30.5c-1.3,2.9-2.7,5.9-4,8.8c-1.2,2.9-2.3,5.8-3.5,8.7c-0.6,1.4-1.1,2.8-1.5,4.2c-0.5,1.4-0.9,2.7-1.4,4
			c-0.4,1.3-0.9,2.6-1.3,3.8c-0.4,1.2-0.7,2.5-1,3.6c-0.7,2.3-1.3,4.5-1.8,6.3c-0.4,1.9-0.8,3.6-1.1,5c-0.6,2.8-1,4.3-1,4.3
			l-14.7-3.1c0,0,0.4-1.7,1.1-4.6c0.3-1.5,0.8-3.3,1.2-5.3c0.6-2,1.2-4.3,1.9-6.8c0.4-1.2,0.7-2.5,1.1-3.9c0.4-1.3,0.9-2.7,1.4-4.1
			c0.5-1.4,1-2.9,1.5-4.3c0.5-1.5,1-3,1.6-4.5c1.2-3,2.4-6.2,3.7-9.3c1.4-3.1,2.8-6.2,4.2-9.4c6-12.5,13.3-24.2,19.3-32.7
			c1.5-2.1,2.8-4.1,4.1-5.7c1.3-1.7,2.4-3.1,3.4-4.3c0.9-1.2,1.7-2.1,2.2-2.8c0.5-0.6,0.8-1,0.8-1L93.8,123.4z"/>
	</g>
	<path fill="#FFFFFF" d="M46.9,230.9c0,0-0.2,1.3-0.4,3.2c-0.1,1-0.3,2.1-0.4,3.3c-0.1,1.2-0.2,2.5-0.3,3.8
		c-0.2,2.6-0.4,5.1-0.5,7.1c0,1.9-0.1,3.2-0.1,3.2l-15-0.5c0,0,0-1.4,0.1-3.5c0.2-2.1,0.4-4.8,0.6-7.6c0.1-1.4,0.2-2.8,0.3-4
		c0.2-1.3,0.3-2.5,0.4-3.5c0.3-2.1,0.4-3.4,0.4-3.4L46.9,230.9z"/>
	<path fill="#FFFFFF" d="M119.1,97.8c0,0-1,0.8-2.4,2.1c-1.5,1.2-3.3,3-5.2,4.8c-0.9,0.9-1.9,1.8-2.7,2.6c-0.4,0.4-0.9,0.8-1.3,1.2
		c-0.4,0.4-0.8,0.8-1.1,1.1c-1.3,1.4-2.2,2.3-2.2,2.3l-10.8-10.4c0,0,1-1,2.4-2.5c0.4-0.4,0.8-0.8,1.2-1.2c0.4-0.4,0.9-0.8,1.3-1.3
		c0.9-0.9,1.9-1.9,2.9-2.8c2-1.9,4-3.8,5.6-5.2c1.6-1.4,2.6-2.3,2.6-2.3L119.1,97.8z"/>
	<g>
		<g>
			<path fill="#FFFFFF" d="M148.8,76.2c0,0-1.1,0.6-2.7,1.7c-1.6,1.1-3.8,2.4-6,3.8c-2.2,1.4-4.2,3-5.8,4.1
				c-1.6,1.1-2.6,1.9-2.6,1.9l-8.9-12.1c0,0,1.1-0.8,2.8-2c1.7-1.2,3.9-2.8,6.2-4.3c2.3-1.5,4.7-3,6.4-4.1c1.7-1.1,2.9-1.8,2.9-1.8
				L148.8,76.2z"/>
			<path fill="#FFFFFF" d="M262.4,30.9l-0.3,15c0,0-0.4,0-1.2,0c-0.8,0-1.9-0.1-3.3,0c-1.4,0-3.1,0.1-5.1,0.1c-1,0-2,0-3.1,0.1
				c-1.1,0-2.3,0-3.5,0.2c-9.7,0.5-22.5,2.1-35.1,5c-12.6,2.8-24.9,6.9-33.8,10.7c-0.6,0.2-1.1,0.4-1.6,0.7c-0.5,0.2-1,0.5-1.5,0.7
				c-1,0.5-2,0.9-2.9,1.3c-1.8,0.8-3.4,1.5-4.6,2.1c-1.3,0.6-2.2,1.1-2.9,1.5c-0.7,0.4-1,0.5-1,0.5l-6.8-13.4c0,0,0.4-0.2,1.1-0.6
				c0.7-0.3,1.8-0.9,3.1-1.6c1.4-0.6,3-1.4,5-2.2c1-0.4,2-0.9,3.1-1.4c0.5-0.2,1.1-0.5,1.6-0.7c0.6-0.2,1.2-0.5,1.8-0.7
				c9.5-4,22.7-8.4,36.2-11.5c13.5-3.1,27.2-4.8,37.6-5.3c1.3-0.1,2.5-0.2,3.7-0.2c1.2,0,2.3-0.1,3.3-0.1c2.1,0,3.9-0.1,5.4-0.1
				c1.5,0,2.7,0,3.5,0C261.9,30.9,262.4,30.9,262.4,30.9z"/>
			<path fill="#FFFFFF" d="M300.7,34.9l-2.8,14.7c0,0-1.3-0.2-3.2-0.6c-1-0.2-2.1-0.4-3.2-0.6c-1.2-0.2-2.5-0.3-3.8-0.5
				c-2.6-0.3-5.1-0.7-7-0.9c-1-0.1-1.8-0.1-2.3-0.2c-0.6-0.1-0.9-0.1-0.9-0.1l1.3-14.9c0,0,0.3,0,1,0.1c0.6,0.1,1.5,0.1,2.5,0.2
				c2,0.3,4.8,0.6,7.5,1c1.4,0.2,2.8,0.3,4,0.5c1.3,0.2,2.5,0.4,3.5,0.6C299.3,34.7,300.7,34.9,300.7,34.9z"/>
		</g>
		<g>
			<path fill="#FFFFFF" d="M262.4,30.9l-0.3,15c0,0-0.4,0-1.2,0c-0.8,0-1.9-0.1-3.3,0c-1.4,0-3.1,0.1-5.1,0.1c-1,0-2,0-3.1,0.1
				c-1.1,0-2.3,0-3.5,0.2c-9.7,0.5-22.5,2.1-35.1,5c-12.6,2.8-24.9,6.9-33.8,10.7c-0.6,0.2-1.1,0.4-1.6,0.7c-0.5,0.2-1,0.5-1.5,0.7
				c-1,0.5-2,0.9-2.9,1.3c-1.8,0.8-3.4,1.5-4.6,2.1c-1.3,0.6-2.2,1.1-2.9,1.5c-0.7,0.4-1,0.5-1,0.5l-6.8-13.4c0,0,0.4-0.2,1.1-0.6
				c0.7-0.3,1.8-0.9,3.1-1.6c1.4-0.6,3-1.4,5-2.2c1-0.4,2-0.9,3.1-1.4c0.5-0.2,1.1-0.5,1.6-0.7c0.6-0.2,1.2-0.5,1.8-0.7
				c9.5-4,22.7-8.4,36.2-11.5c13.5-3.1,27.2-4.8,37.6-5.3c1.3-0.1,2.5-0.2,3.7-0.2c1.2,0,2.3-0.1,3.3-0.1c2.1,0,3.9-0.1,5.4-0.1
				c1.5,0,2.7,0,3.5,0C261.9,30.9,262.4,30.9,262.4,30.9z"/>
		</g>
		<path fill="#FFFFFF" d="M148.8,76.2c0,0-1.1,0.6-2.7,1.7c-1.6,1.1-3.8,2.4-6,3.8c-2.2,1.4-4.2,3-5.8,4.1c-1.6,1.1-2.6,1.9-2.6,1.9
			l-8.9-12.1c0,0,1.1-0.8,2.8-2c1.7-1.2,3.9-2.8,6.2-4.3c2.3-1.5,4.7-3,6.4-4.1c1.7-1.1,2.9-1.8,2.9-1.8L148.8,76.2z"/>
		<path fill="#FFFFFF" d="M300.7,34.9l-2.8,14.7c0,0-1.3-0.2-3.2-0.6c-1-0.2-2.1-0.4-3.2-0.6c-1.2-0.2-2.5-0.3-3.8-0.5
			c-2.6-0.3-5.1-0.7-7-0.9c-1-0.1-1.8-0.1-2.3-0.2c-0.6-0.1-0.9-0.1-0.9-0.1l1.3-14.9c0,0,0.3,0,1,0.1c0.6,0.1,1.5,0.1,2.5,0.2
			c2,0.3,4.8,0.6,7.5,1c1.4,0.2,2.8,0.3,4,0.5c1.3,0.2,2.5,0.4,3.5,0.6C299.3,34.7,300.7,34.9,300.7,34.9z"/>
	</g>
	<g>
		<g>
			<path fill="#FFFFFF" d="M338.5,45.4l-5.3,14c0,0-0.3-0.1-0.8-0.3c-0.5-0.2-1.3-0.5-2.2-0.8c-1.8-0.6-4.3-1.5-6.7-2.3
				c-0.6-0.2-1.2-0.4-1.8-0.6c-0.6-0.2-1.2-0.3-1.8-0.5c-1.2-0.3-2.2-0.6-3.2-0.9c-1.9-0.5-3.1-0.9-3.1-0.9l3.9-14.5
				c0,0,1.3,0.4,3.3,1c1,0.3,2.2,0.6,3.4,1c0.6,0.2,1.3,0.4,1.9,0.6c0.7,0.2,1.3,0.4,2,0.6c2.6,0.9,5.2,1.8,7.2,2.4
				c1,0.3,1.8,0.6,2.4,0.8C338.2,45.3,338.5,45.4,338.5,45.4z"/>
			<path fill="#FFFFFF" d="M439.5,120l-11.9,9.2c0,0-1-1.3-2.7-3.5c-0.4-0.6-0.9-1.2-1.4-1.8c-0.5-0.7-1.2-1.4-1.8-2.1
				c-1.3-1.5-2.7-3.2-4.3-5c-6.5-7.2-15.7-16.3-25.8-24.3c-10.1-8.1-20.9-15.1-29.4-19.8c-2.1-1.2-4.1-2.2-5.8-3.1
				c-1.8-0.9-3.3-1.7-4.5-2.3c-1.2-0.7-2.3-1.1-3-1.4c-0.7-0.3-1.1-0.5-1.1-0.5l6.3-13.6c0,0,0.4,0.2,1.1,0.5
				c0.7,0.3,1.8,0.8,3.2,1.5c1.4,0.7,3,1.5,4.9,2.5c1.9,1,4,2,6.2,3.3c9.1,4.9,20.7,12.5,31.5,21.2c2.8,2.1,5.3,4.4,7.9,6.6
				c1.3,1.1,2.6,2.2,3.8,3.3c1.2,1.1,2.4,2.3,3.6,3.4c1.2,1.1,2.3,2.2,3.5,3.3c1.1,1.1,2.1,2.2,3.2,3.3c1,1.1,2,2.1,3,3.1
				c1,1,1.9,2,2.7,3c1.7,2,3.2,3.8,4.6,5.3c0.7,0.8,1.3,1.5,1.9,2.2c0.6,0.7,1.1,1.4,1.5,2C438.4,118.6,439.5,120,439.5,120z"/>
			<path fill="#FFFFFF" d="M460.3,152.4l-13.2,7c0,0-0.2-0.3-0.4-0.8c-0.2-0.5-0.6-1.2-1.1-2c-1-1.7-2.2-3.9-3.5-6.2
				c-0.3-0.6-0.6-1.1-1-1.7c-0.3-0.5-0.7-1.1-1-1.6c-0.7-1-1.3-2-1.8-2.8c-1-1.6-1.7-2.7-1.7-2.7l12.5-8.3c0,0,0.8,1.2,1.9,2.9
				c0.6,0.9,1.2,1.9,1.9,3c0.4,0.5,0.7,1.1,1.1,1.7c0.3,0.6,0.7,1.2,1,1.8c1.4,2.4,2.8,4.8,3.8,6.6c0.5,0.9,0.9,1.6,1.2,2.2
				C460.1,152.1,460.3,152.4,460.3,152.4z"/>
		</g>
		<g>
			<path fill="#FFFFFF" d="M439.5,120l-11.9,9.2c0,0-1-1.3-2.7-3.5c-0.4-0.6-0.9-1.2-1.4-1.8c-0.5-0.7-1.2-1.4-1.8-2.1
				c-1.3-1.5-2.7-3.2-4.3-5c-6.5-7.2-15.7-16.3-25.8-24.3c-10.1-8.1-20.9-15.1-29.4-19.8c-2.1-1.2-4.1-2.2-5.8-3.1
				c-1.8-0.9-3.3-1.7-4.5-2.3c-1.2-0.7-2.3-1.1-3-1.4c-0.7-0.3-1.1-0.5-1.1-0.5l6.3-13.6c0,0,0.4,0.2,1.1,0.5
				c0.7,0.3,1.8,0.8,3.2,1.5c1.4,0.7,3,1.5,4.9,2.5c1.9,1,4,2,6.2,3.3c9.1,4.9,20.7,12.5,31.5,21.2c2.8,2.1,5.3,4.4,7.9,6.6
				c1.3,1.1,2.6,2.2,3.8,3.3c1.2,1.1,2.4,2.3,3.6,3.4c1.2,1.1,2.3,2.2,3.5,3.3c1.1,1.1,2.1,2.2,3.2,3.3c1,1.1,2,2.1,3,3.1
				c1,1,1.9,2,2.7,3c1.7,2,3.2,3.8,4.6,5.3c0.7,0.8,1.3,1.5,1.9,2.2c0.6,0.7,1.1,1.4,1.5,2C438.4,118.6,439.5,120,439.5,120z"/>
		</g>
		<path fill="#FFFFFF" d="M338.5,45.4l-5.3,14c0,0-0.3-0.1-0.8-0.3c-0.5-0.2-1.3-0.5-2.2-0.8c-1.8-0.6-4.3-1.5-6.7-2.3
			c-0.6-0.2-1.2-0.4-1.8-0.6c-0.6-0.2-1.2-0.3-1.8-0.5c-1.2-0.3-2.2-0.6-3.2-0.9c-1.9-0.5-3.1-0.9-3.1-0.9l3.9-14.5
			c0,0,1.3,0.4,3.3,1c1,0.3,2.2,0.6,3.4,1c0.6,0.2,1.3,0.4,1.9,0.6c0.7,0.2,1.3,0.4,2,0.6c2.6,0.9,5.2,1.8,7.2,2.4
			c1,0.3,1.8,0.6,2.4,0.8C338.2,45.3,338.5,45.4,338.5,45.4z"/>
		<path fill="#FFFFFF" d="M460.3,152.4l-13.2,7c0,0-0.2-0.3-0.4-0.8c-0.2-0.5-0.6-1.2-1.1-2c-1-1.7-2.2-3.9-3.5-6.2
			c-0.3-0.6-0.6-1.1-1-1.7c-0.3-0.5-0.7-1.1-1-1.6c-0.7-1-1.3-2-1.8-2.8c-1-1.6-1.7-2.7-1.7-2.7l12.5-8.3c0,0,0.8,1.2,1.9,2.9
			c0.6,0.9,1.2,1.9,1.9,3c0.4,0.5,0.7,1.1,1.1,1.7c0.3,0.6,0.7,1.2,1,1.8c1.4,2.4,2.8,4.8,3.8,6.6c0.5,0.9,0.9,1.6,1.2,2.2
			C460.1,152.1,460.3,152.4,460.3,152.4z"/>
	</g>
	<g>
		<g>
			<path fill="#FFFFFF" d="M475.6,188.6l-14.3,4.6c0,0-0.4-1.2-1-3c-0.6-1.8-1.4-4.3-2.4-6.7c-0.9-2.4-1.9-4.8-2.6-6.6
				c-0.3-0.9-0.7-1.6-0.9-2.1c-0.2-0.5-0.4-0.8-0.4-0.8l13.8-6c0,0,0.1,0.3,0.4,0.9c0.2,0.6,0.6,1.3,1,2.3c0.8,1.9,1.8,4.5,2.8,7.1
				c1.1,2.5,1.9,5.2,2.6,7.1C475.2,187.3,475.6,188.6,475.6,188.6z"/>
			<path fill="#FFFFFF" d="M475.7,329.9c0,0-0.4,1.3-1.1,3.3c-0.7,1.9-1.5,4.6-2.6,7.1c-1,2.6-2,5.1-2.8,7.1c-0.4,1-0.7,1.8-1,2.3
				c-0.2,0.6-0.4,0.9-0.4,0.9l-13.8-6c0,0,0.1-0.3,0.4-0.8c0.2-0.5,0.6-1.2,0.9-2.1c0.7-1.8,1.7-4.2,2.6-6.6c1-2.4,1.7-4.8,2.4-6.7
				c0.6-1.8,1-3,1-3L475.7,329.9z"/>
			<path fill="#FFFFFF" d="M487,259.3c-0.1,3.5-0.2,6.9-0.2,10.3c0,1.7-0.2,3.4-0.3,5c-0.1,1.7-0.2,3.3-0.4,4.9
				c-0.2,3.2-0.7,6.3-1,9.3c-0.4,2.9-0.7,5.7-1.2,8.3c-0.5,2.5-0.9,4.9-1.2,7c-0.2,1-0.4,2-0.6,2.9c-0.2,0.9-0.4,1.7-0.6,2.4
				c-0.7,2.9-1.1,4.6-1.1,4.6l-14.6-3.6c0,0,0.4-1.6,1-4.3c0.2-0.7,0.3-1.4,0.5-2.3c0.2-0.8,0.4-1.7,0.6-2.7
				c0.3-1.9,0.7-4.1,1.2-6.5c0.5-2.4,0.8-5,1.1-7.7c0.3-2.8,0.8-5.7,1-8.7c0.1-1.5,0.2-3,0.3-4.6c0.1-1.5,0.3-3.1,0.3-4.7
				c0.1-3.2,0.2-6.4,0.2-9.6c0-12.9-1.4-25.8-3-35.3c-0.4-2.4-0.8-4.6-1.2-6.5c-0.2-1-0.4-1.9-0.6-2.7c-0.2-0.8-0.4-1.6-0.5-2.3
				c-0.6-2.8-1-4.3-1-4.3l14.6-3.6c0,0,0.4,1.7,1.1,4.6c0.2,0.7,0.4,1.5,0.6,2.4c0.2,0.9,0.4,1.9,0.6,2.9c0.4,2.1,0.8,4.4,1.2,7
				c0.2,1.3,0.5,2.6,0.7,4c0.2,1.4,0.4,2.8,0.5,4.3c0.4,3,0.8,6,1,9.3c0.1,1.6,0.2,3.3,0.4,4.9c0.1,1.7,0.3,3.3,0.3,5
				C486.8,252.4,486.9,255.9,487,259.3z"/>
		</g>
		<g>
			<path fill="#FFFFFF" d="M487,259.3c-0.1,3.5-0.2,6.9-0.2,10.3c0,1.7-0.2,3.4-0.3,5c-0.1,1.7-0.2,3.3-0.4,4.9
				c-0.2,3.2-0.7,6.3-1,9.3c-0.4,2.9-0.7,5.7-1.2,8.3c-0.5,2.5-0.9,4.9-1.2,7c-0.2,1-0.4,2-0.6,2.9c-0.2,0.9-0.4,1.7-0.6,2.4
				c-0.7,2.9-1.1,4.6-1.1,4.6l-14.6-3.6c0,0,0.4-1.6,1-4.3c0.2-0.7,0.3-1.4,0.5-2.3c0.2-0.8,0.4-1.7,0.6-2.7
				c0.3-1.9,0.7-4.1,1.2-6.5c0.5-2.4,0.8-5,1.1-7.7c0.3-2.8,0.8-5.7,1-8.7c0.1-1.5,0.2-3,0.3-4.6c0.1-1.5,0.3-3.1,0.3-4.7
				c0.1-3.2,0.2-6.4,0.2-9.6c0-12.9-1.4-25.8-3-35.3c-0.4-2.4-0.8-4.6-1.2-6.5c-0.2-1-0.4-1.9-0.6-2.7c-0.2-0.8-0.4-1.6-0.5-2.3
				c-0.6-2.8-1-4.3-1-4.3l14.6-3.6c0,0,0.4,1.7,1.1,4.6c0.2,0.7,0.4,1.5,0.6,2.4c0.2,0.9,0.4,1.9,0.6,2.9c0.4,2.1,0.8,4.4,1.2,7
				c0.2,1.3,0.5,2.6,0.7,4c0.2,1.4,0.4,2.8,0.5,4.3c0.4,3,0.8,6,1,9.3c0.1,1.6,0.2,3.3,0.4,4.9c0.1,1.7,0.3,3.3,0.3,5
				C486.8,252.4,486.9,255.9,487,259.3z"/>
		</g>
		<path fill="#FFFFFF" d="M475.6,188.6l-14.3,4.6c0,0-0.4-1.2-1-3c-0.6-1.8-1.4-4.3-2.4-6.7c-0.9-2.4-1.9-4.8-2.6-6.6
			c-0.3-0.9-0.7-1.6-0.9-2.1c-0.2-0.5-0.4-0.8-0.4-0.8l13.8-6c0,0,0.1,0.3,0.4,0.9c0.2,0.6,0.6,1.3,1,2.3c0.8,1.9,1.8,4.5,2.8,7.1
			c1.1,2.5,1.9,5.2,2.6,7.1C475.2,187.3,475.6,188.6,475.6,188.6z"/>
		<path fill="#FFFFFF" d="M475.7,329.9c0,0-0.4,1.3-1.1,3.3c-0.7,1.9-1.5,4.6-2.6,7.1c-1,2.6-2,5.1-2.8,7.1c-0.4,1-0.7,1.8-1,2.3
			c-0.2,0.6-0.4,0.9-0.4,0.9l-13.8-6c0,0,0.1-0.3,0.4-0.8c0.2-0.5,0.6-1.2,0.9-2.1c0.7-1.8,1.7-4.2,2.6-6.6c1-2.4,1.7-4.8,2.4-6.7
			c0.6-1.8,1-3,1-3L475.7,329.9z"/>
	</g>
	<g>
		<g>
			<path fill="#FFFFFF" d="M338.8,473.2c0,0-0.3,0.1-0.9,0.4c-0.6,0.2-1.4,0.5-2.4,0.8c-2,0.7-4.6,1.5-7.2,2.4
				c-0.7,0.2-1.3,0.4-2,0.7c-0.7,0.2-1.3,0.4-1.9,0.5c-1.2,0.3-2.4,0.7-3.4,1c-2,0.6-3.3,1-3.3,1l-3.9-14.5c0,0,1.2-0.3,3.1-0.9
				c0.9-0.3,2-0.6,3.2-0.9c0.6-0.2,1.2-0.3,1.8-0.5c0.6-0.2,1.2-0.4,1.8-0.6c2.4-0.8,4.9-1.7,6.7-2.3c0.9-0.3,1.7-0.6,2.2-0.8
				c0.5-0.2,0.8-0.3,0.8-0.3L338.8,473.2z"/>
			<path fill="#FFFFFF" d="M439.6,398.7c0,0-1.1,1.4-2.9,3.7c-1.8,2.4-4.7,5.6-8.1,9.6c-0.8,1-1.8,2-2.7,3c-1,1-2,2.1-3,3.1
				c-1,1.1-2.1,2.2-3.2,3.3c-1.1,1.1-2.3,2.2-3.5,3.3c-1.2,1.1-2.4,2.2-3.6,3.4c-1.2,1.1-2.5,2.2-3.8,3.3c-2.6,2.2-5.1,4.5-7.9,6.6
				c-10.8,8.6-22.4,16.2-31.5,21.2c-2.2,1.3-4.4,2.3-6.2,3.3c-1.9,1-3.5,1.8-4.8,2.5c-1.3,0.7-2.5,1.1-3.2,1.5
				c-0.7,0.3-1.1,0.5-1.1,0.5l-6.3-13.6c0,0,0.4-0.2,1.1-0.5c0.7-0.3,1.7-0.7,3-1.4c1.3-0.6,2.8-1.4,4.5-2.3
				c1.7-0.9,3.8-1.9,5.8-3.1c8.5-4.6,19.4-11.7,29.4-19.8c10.1-8,19.3-17.1,25.8-24.3c3.1-3.7,5.9-6.7,7.6-8.9
				c1.8-2.2,2.7-3.5,2.7-3.5L439.6,398.7z"/>
			<path fill="#FFFFFF" d="M460.4,366.1c0,0-0.2,0.3-0.4,0.8c-0.3,0.5-0.7,1.3-1.2,2.2c-1,1.8-2.4,4.2-3.8,6.6
				c-1.3,2.4-2.9,4.7-4,6.5c-1.1,1.7-1.9,2.9-1.9,2.9l-12.5-8.3c0,0,0.7-1.1,1.7-2.7c1-1.6,2.5-3.8,3.7-6c1.3-2.2,2.6-4.5,3.5-6.1
				c0.5-0.8,0.8-1.6,1.1-2.1c0.3-0.5,0.4-0.8,0.4-0.8L460.4,366.1z"/>
		</g>
		<g>
			<path fill="#FFFFFF" d="M439.6,398.7c0,0-1.1,1.4-2.9,3.7c-1.8,2.4-4.7,5.6-8.1,9.6c-0.8,1-1.8,2-2.7,3c-1,1-2,2.1-3,3.1
				c-1,1.1-2.1,2.2-3.2,3.3c-1.1,1.1-2.3,2.2-3.5,3.3c-1.2,1.1-2.4,2.2-3.6,3.4c-1.2,1.1-2.5,2.2-3.8,3.3c-2.6,2.2-5.1,4.5-7.9,6.6
				c-10.8,8.6-22.4,16.2-31.5,21.2c-2.2,1.3-4.4,2.3-6.2,3.3c-1.9,1-3.5,1.8-4.8,2.5c-1.3,0.7-2.5,1.1-3.2,1.5
				c-0.7,0.3-1.1,0.5-1.1,0.5l-6.3-13.6c0,0,0.4-0.2,1.1-0.5c0.7-0.3,1.7-0.7,3-1.4c1.3-0.6,2.8-1.4,4.5-2.3
				c1.7-0.9,3.8-1.9,5.8-3.1c8.5-4.6,19.4-11.7,29.4-19.8c10.1-8,19.3-17.1,25.8-24.3c3.1-3.7,5.9-6.7,7.6-8.9
				c1.8-2.2,2.7-3.5,2.7-3.5L439.6,398.7z"/>
		</g>
		<path fill="#FFFFFF" d="M460.4,366.1c0,0-0.2,0.3-0.4,0.8c-0.3,0.5-0.7,1.3-1.2,2.2c-1,1.8-2.4,4.2-3.8,6.6
			c-1.3,2.4-2.9,4.7-4,6.5c-1.1,1.7-1.9,2.9-1.9,2.9l-12.5-8.3c0,0,0.7-1.1,1.7-2.7c1-1.6,2.5-3.8,3.7-6c1.3-2.2,2.6-4.5,3.5-6.1
			c0.5-0.8,0.8-1.6,1.1-2.1c0.3-0.5,0.4-0.8,0.4-0.8L460.4,366.1z"/>
		<path fill="#FFFFFF" d="M338.8,473.2c0,0-0.3,0.1-0.9,0.4c-0.6,0.2-1.4,0.5-2.4,0.8c-2,0.7-4.6,1.5-7.2,2.4
			c-0.7,0.2-1.3,0.4-2,0.7c-0.7,0.2-1.3,0.4-1.9,0.5c-1.2,0.3-2.4,0.7-3.4,1c-2,0.6-3.3,1-3.3,1l-3.9-14.5c0,0,1.2-0.3,3.1-0.9
			c0.9-0.3,2-0.6,3.2-0.9c0.6-0.2,1.2-0.3,1.8-0.5c0.6-0.2,1.2-0.4,1.8-0.6c2.4-0.8,4.9-1.7,6.7-2.3c0.9-0.3,1.7-0.6,2.2-0.8
			c0.5-0.2,0.8-0.3,0.8-0.3L338.8,473.2z"/>
	</g>
	<g>
		<g>
			<path fill="#FFFFFF" d="M146.3,441c1.6,1.1,2.8,1.7,2.8,1.7l-7.7,12.9c0,0-1.2-0.7-3-1.8c-1.7-1.1-4.1-2.6-6.4-4.1
				c-1.2-0.7-2.3-1.5-3.3-2.3c-1-0.8-2-1.4-2.9-2c-1.7-1.2-2.8-2-2.8-2l8.9-12.1c0,0,1,0.8,2.6,1.9c0.8,0.6,1.7,1.2,2.7,1.9
				c1,0.7,2,1.5,3.1,2.1C142.5,438.5,144.7,439.9,146.3,441z"/>
			<path fill="#FFFFFF" d="M262.2,472.8l0.3,15c0,0-0.4,0-1.2,0c-0.8,0-2,0.1-3.5,0.1c-1.5,0-3.3-0.1-5.5-0.1c-1,0-2.2-0.1-3.3-0.1
				c-1.2,0-2.4,0-3.7-0.2c-10.3-0.5-24.1-2.2-37.6-5.3c-13.5-3-26.6-7.4-36.2-11.4c-2.4-0.9-4.5-2-6.5-2.8c-1.9-0.9-3.6-1.6-5-2.2
				c-1.4-0.6-2.4-1.2-3.1-1.6c-0.7-0.4-1.1-0.6-1.1-0.6l6.8-13.4c0,0,0.4,0.2,1,0.5c0.7,0.3,1.7,0.9,2.9,1.5
				c1.3,0.6,2.9,1.3,4.6,2.1c1.8,0.8,3.8,1.8,6.1,2.6c8.9,3.8,21.2,7.8,33.8,10.7c12.6,2.9,25.4,4.5,35.1,5c1.2,0.1,2.4,0.1,3.5,0.2
				c1.1,0,2.2,0.1,3.1,0.1c2,0,3.7,0.1,5.1,0.1c1.4,0,2.5,0,3.3-0.1C261.8,472.8,262.2,472.8,262.2,472.8z"/>
			<path fill="#FFFFFF" d="M300.9,483.8c0,0-1.4,0.2-3.4,0.6c-1,0.2-2.2,0.4-3.5,0.6c-1.3,0.2-2.7,0.4-4,0.6c-2.7,0.3-5.5,0.7-7.5,1
				c-1,0.2-1.9,0.2-2.5,0.2c-0.6,0-1,0.1-1,0.1l-1.3-14.9c0,0,0.3,0,0.9-0.1c0.6-0.1,1.4-0.1,2.3-0.2c1.9-0.2,4.5-0.6,7-0.9
				c1.3-0.2,2.6-0.3,3.8-0.5c1.2-0.2,2.3-0.4,3.2-0.6c1.9-0.3,3.2-0.6,3.2-0.6L300.9,483.8z"/>
		</g>
		<g>
			<path fill="#FFFFFF" d="M262.4,487.8c0,0-0.4,0-1.2,0c-0.8,0-2,0.1-3.5,0.1c-1.5,0-3.3-0.1-5.5-0.1c-1,0-2.2-0.1-3.3-0.1
				c-1.2,0-2.4,0-3.7-0.2c-10.3-0.5-24.1-2.2-37.6-5.3c-13.5-3-26.6-7.4-36.2-11.4c-2.4-0.9-4.5-2-6.5-2.8c-1.9-0.9-3.6-1.6-5-2.2
				c-1.4-0.6-2.4-1.2-3.1-1.6c-0.7-0.4-1.1-0.6-1.1-0.6l6.8-13.4c0,0,0.4,0.2,1,0.5c0.7,0.3,1.7,0.9,2.9,1.5
				c1.3,0.6,2.9,1.3,4.6,2.1c1.8,0.8,3.8,1.8,6.1,2.6c8.9,3.8,21.2,7.8,33.8,10.7c12.6,2.9,25.4,4.5,35.1,5c1.2,0.1,2.4,0.1,3.5,0.2
				c1.1,0,2.2,0.1,3.1,0.1c2,0,3.7,0.1,5.1,0.1c1.4,0,2.5,0,3.3-0.1c0.8,0,1.2,0,1.2,0L262.4,487.8z"/>
		</g>
		<path fill="#FFFFFF" d="M300.9,483.8c0,0-1.4,0.2-3.4,0.6c-1,0.2-2.2,0.4-3.5,0.6c-1.3,0.2-2.7,0.4-4,0.6c-2.7,0.3-5.5,0.7-7.5,1
			c-1,0.2-1.9,0.2-2.5,0.2c-0.6,0-1,0.1-1,0.1l-1.3-14.9c0,0,0.3,0,0.9-0.1c0.6-0.1,1.4-0.1,2.3-0.2c1.9-0.2,4.5-0.6,7-0.9
			c1.3-0.2,2.6-0.3,3.8-0.5c1.2-0.2,2.3-0.4,3.2-0.6c1.9-0.3,3.2-0.6,3.2-0.6L300.9,483.8z"/>
		<path fill="#FFFFFF" d="M149.1,442.7l-7.7,12.9c0,0-1.2-0.7-3-1.8c-1.7-1.1-4.1-2.6-6.4-4.1c-1.2-0.7-2.3-1.5-3.3-2.3
			c-1-0.8-2-1.4-2.9-2c-1.7-1.2-2.8-2-2.8-2l8.9-12.1c0,0,1,0.8,2.6,1.9c0.8,0.6,1.7,1.2,2.7,1.9c1,0.7,2,1.5,3.1,2.1
			c2.2,1.4,4.4,2.8,6,3.8C147.9,442.1,149.1,442.7,149.1,442.7z"/>
	</g>
	<g>
		<path fill="#FFFFFF" d="M93.8,395.4L82.3,405c0,0-0.3-0.3-0.8-1c-0.5-0.6-1.2-1.6-2.2-2.8c-0.9-1.2-2.1-2.6-3.4-4.3
			c-1.3-1.6-2.6-3.6-4.1-5.7c-6-8.4-13.4-20.2-19.3-32.7c-1.4-3.1-2.9-6.3-4.2-9.4c-1.3-3.1-2.5-6.3-3.7-9.3
			c-0.3-0.8-0.6-1.5-0.9-2.2c-0.2-0.8-0.5-1.5-0.8-2.2c-0.5-1.5-1-2.9-1.5-4.3c-0.5-1.4-0.9-2.8-1.4-4.1c-0.4-1.3-0.8-2.6-1.1-3.9
			c-0.7-2.5-1.3-4.8-1.9-6.8c-0.5-2-0.9-3.8-1.2-5.3c-0.7-2.9-1.1-4.6-1.1-4.6l14.7-3.1c0,0,0.4,1.6,1,4.3c0.3,1.4,0.7,3,1.1,5
			c0.5,1.9,1.1,4,1.8,6.4c0.3,1.2,0.7,2.4,1,3.6c0.4,1.2,0.8,2.5,1.3,3.8c0.4,1.3,0.9,2.7,1.4,4c0.2,0.7,0.5,1.4,0.7,2.1
			c0.2,0.7,0.6,1.4,0.8,2.1c1.1,2.8,2.2,5.7,3.5,8.7c1.3,2.9,2.6,5.8,4,8.8c5.6,11.6,12.5,22.6,18.1,30.5c1.4,2,2.6,3.8,3.9,5.4
			c1.2,1.5,2.3,2.9,3.1,4c0.9,1.1,1.6,2,2,2.6C93.6,395.1,93.8,395.4,93.8,395.4z"/>
	</g>
	<path fill="#FFFFFF" d="M119.3,421.1l-9.8,11.4c0,0-1-0.9-2.6-2.3c-0.8-0.7-1.7-1.4-2.6-2.3c-0.9-0.9-1.9-1.8-2.9-2.8
		c-1-1-2-1.9-2.9-2.8s-1.8-1.7-2.5-2.5c-1.4-1.5-2.4-2.5-2.4-2.5l10.8-10.4c0,0,0.9,0.9,2.2,2.3c0.6,0.7,1.5,1.5,2.3,2.3
		c0.9,0.8,1.8,1.7,2.7,2.6c0.9,0.9,1.9,1.8,2.7,2.6c0.9,0.9,1.8,1.5,2.5,2.2C118.3,420.3,119.3,421.1,119.3,421.1z"/>
	<path fill="#FFFFFF" d="M47,288.1l-14.9,2c0,0-0.2-1.4-0.4-3.4c-0.1-1-0.3-2.2-0.5-3.5c-0.1-1.3-0.2-2.7-0.3-4
		c-0.2-2.8-0.4-5.5-0.6-7.6c-0.1-1-0.1-1.9-0.1-2.5c0-0.6,0-0.9,0-0.9l15-0.6c0,0,0,0.3,0,0.9c0,0.6,0,1.4,0.1,2.3
		c0.1,1.9,0.3,4.5,0.5,7.1c0.1,1.3,0.2,2.6,0.3,3.8c0.2,1.2,0.3,2.3,0.4,3.3C46.8,286.9,47,288.1,47,288.1z"/>
</g>
<path fill="#AAD18F" d="M61.3,272c0,0,97-161,110-153s32,68,32,68l36,97l19,32l-164,50C94.3,366,75.3,341,61.3,272z"/>
<path fill="#9AC17C" d="M139.3,289.7c0,0,75.8-105,86-99.8c10.2,5.2,25,44.4,25,44.4l28.1,63.3l14.9,20.9L165.1,351
	C165.1,351,150.2,334.7,139.3,289.7z"/>
<path fill="#88AF61" d="M63.3,280c0,0,57,2,76,10s8-26,97,5s103,23,103,23l17-12c0,0,33-13,65-17s41-23,41-23s-6,66-36,94
	s-26,47-79,73s-119,38-206-13S63.3,280,63.3,280z"/>
<path fill="#82CFCA" d="M63.3,280c0,0,47-5,92,15s77,24,77,24s57,24,91,20s72-9,82-8s34,7,34,7s-48,4-65,10s-88,21-111,20
	s-44,9-60,9s-49-12-56-22s-23-36-37-42S63.3,280,63.3,280z"/>
<polygon fill="#F27D77" points="267.3,320 285.9,259 285.9,320 282.3,320 "/>
<polygon fill="#EC6464" points="323.3,320 285.9,259 285.9,320 "/>
<path fill="#FFFFFF" d="M287.3,320v9l-46.5,0.5c0,0,16,22.2,18.2,22.2s65-1,65-1l21.8-22.2h-53.2v-8.2L287.3,320z"/>
</svg>
