<?xml version="1.0" encoding="utf-8"?>
<!-- Generator: Adobe Illustrator 18.0.0, SVG Export Plug-In . SVG Version: 6.00 Build 0)  -->
<!DOCTYPE svg PUBLIC "-//W3C//DTD SVG 1.1//EN" "http://www.w3.org/Graphics/SVG/1.1/DTD/svg11.dtd">
<svg version="1.1" id="Layer_1" xmlns="http://www.w3.org/2000/svg" xmlns:xlink="http://www.w3.org/1999/xlink" x="0px" y="0px"
	 viewBox="0 0 618.9 106.6" style="enable-background:new 0 0 618.9 106.6;" xml:space="preserve">
<style type="text/css">
	.st0{fill:#62C7CD;}
</style>
<path class="st0" d="M618.9,45.3l-0.1-1.9c0-0.1,0.1-0.2,0.1-0.3v-8.9c-1.6-13-7.3-34.2-7.3-34.2c-21.7,34.7-138.9,39-138.9,39
	c5.7-8.7-8.6-28.9-8.6-28.9C432.3,54.9,312,50.9,312,50.9c14.1-18.5,0-32.1,0-32.1c-30.7,37.6-160.2,31.8-160.2,31.8
	c10.1-7.2,0-27.5,0-27.5C115.7,54.9,0.4,40.5,0,40.5C0.6,59.3,1,78.2,1.1,97c0,1-0.1,2-0.2,3l0.1,6.6h617.9V45.3z"/>
<g>
</g>
<g>
</g>
<g>
</g>
<g>
</g>
<g>
</g>
<g>
</g>
</svg>
