<?xml version="1.0" encoding="utf-8"?>
<!-- Generator: Adobe Illustrator 18.0.0, SVG Export Plug-In . SVG Version: 6.00 Build 0)  -->
<!DOCTYPE svg PUBLIC "-//W3C//DTD SVG 1.1//EN" "http://www.w3.org/Graphics/SVG/1.1/DTD/svg11.dtd">
<svg version="1.1" id="Layer_1" xmlns="http://www.w3.org/2000/svg" xmlns:xlink="http://www.w3.org/1999/xlink" x="0px" y="0px"
	 viewBox="0 0 618.9 133.8" style="enable-background:new 0 0 618.9 133.8;" xml:space="preserve">
<style type="text/css">
	.st0{fill:#63A69F;}
</style>
<path class="st0" d="M2.4,133.8h616.5l-4-79.4c3.6-7.3-9.1-54.5-9.1-54.5c-27.2,43.6-174.4,49-174.4,49
	c7.1-10.9-10.7-36.3-10.7-36.3c-39.9,56.3-191,51.2-191,51.2c17.7-23.2,0-40.3,0-40.3C191.2,70.8,28.6,63.5,28.6,63.5
	c12.7-9.1,0-34.5,0-34.5C21.3,35.5,11.4,40.4,0,44.1C0.9,74,2,103.9,2.4,133.8z"/>
<g>
</g>
<g>
</g>
<g>
</g>
<g>
</g>
<g>
</g>
<g>
</g>
</svg>
