<?xml version="1.0" encoding="utf-8"?>
<!-- Generator: Adobe Illustrator 18.0.0, SVG Export Plug-In . SVG Version: 6.00 Build 0)  -->
<!DOCTYPE svg PUBLIC "-//W3C//DTD SVG 1.1//EN" "http://www.w3.org/Graphics/SVG/1.1/DTD/svg11.dtd">
<svg version="1.1" id="Layer_1" xmlns="http://www.w3.org/2000/svg" xmlns:xlink="http://www.w3.org/1999/xlink" x="0px" y="0px"
	 viewBox="0 0 387.9 478.5" enable-background="new 0 0 387.9 478.5" xml:space="preserve">
<path fill="#E56565" d="M364.5,69.8L160.4,4.9c-17.6-5.6-36.5,4.2-42.1,21.8L9.3,370c-5.6,17.6,4.2,36.5,21.8,42.1l204.1,64.8
	c17.6,5.6,36.5-4.2,42.1-21.8l109-343.3C391.9,94.2,382.1,75.4,364.5,69.8z"/>
<path fill="#F27C77" d="M220.1,469.7L24.5,402.4c-19-6.5-29-27.2-22.5-46.1L116.1,24.5c6.5-19,27.2-29,46.1-22.5l195.6,67.3
	c19,6.5,29,27.2,22.5,46.1L266.2,447.1C259.7,466.1,239,476.2,220.1,469.7z"/>
<g>
	<path fill="#FFFFFF" d="M131.4,172.8l24-69.2l16.9,5.9c12.4,4.3,13.4,14.3,9.9,24.3c-3.4,9.9-10.1,18.7-23.3,14.2l-10.8-3.7
		l-10.7,30.8L131.4,172.8z M149.8,139.2l11.5,4c7,2.5,11.2-1.5,14.7-11.5c3.3-9.6,1.6-14.9-4.8-17.2l-11.5-4L149.8,139.2z"/>
	<path fill="#FFFFFF" d="M172.1,186.8l-6.2-2.1c17.6-29.9,20-34.6,37.6-64.5l8,2.8l-10.3,74l-6.2-2.1l2.8-19.2l-16-5.5L172.1,186.8z
		 M184,166.2l14.5,5l6.8-43.3L184,166.2z"/>
	<path fill="#FFFFFF" d="M212.4,182.1l5.9,0.3c-1.7,7.6-0.9,15.9,7.4,18.7c6.3,2.2,11.1-0.2,13.3-6.6c2-5.9-0.5-12.4-3.7-19.4
		l-6.9-15.1c-2.6-5.7-4.3-11.2-2.5-16.4c3.2-9.2,11.9-12.6,21.1-9.4c9.1,3.2,12.8,10.4,11.3,20.7l-0.1,0.7l-5.7-0.2l0.1-0.6
		c1.2-6.8-0.7-13.4-7.3-15.7c-5.9-2-11-0.5-13.2,5.7c-1.4,3.9-0.2,8.2,1.9,13l6.3,14.6c3.4,7.8,7.5,15.6,4.7,23.6
		c-3.5,10.2-12.4,13-21.7,9.8C213.1,202.3,210.5,192.1,212.4,182.1z"/>
	<path fill="#FFFFFF" d="M252.1,195.8l5.9,0.3c-1.7,7.6-0.9,15.9,7.3,18.7c6.3,2.2,11.1-0.2,13.3-6.6c2-5.9-0.5-12.4-3.7-19.4
		l-6.9-15.1c-2.6-5.7-4.3-11.2-2.5-16.4c3.2-9.2,11.9-12.6,21.1-9.4c9.1,3.2,12.8,10.4,11.3,20.7l-0.1,0.7l-5.7-0.2l0.1-0.6
		c1.2-6.8-0.7-13.4-7.3-15.7c-5.9-2-11-0.5-13.2,5.7c-1.4,3.9-0.2,8.2,1.9,13l6.3,14.6c3.4,7.8,7.5,15.6,4.7,23.6
		c-3.5,10.2-12.4,13-21.7,9.8C252.8,216,250.2,205.9,252.1,195.8z"/>
</g>
<path fill="#FFFFFF" d="M170.2,349c-31.9,0-57.8-26-57.8-57.8s26-57.8,57.8-57.8c31.9,0,57.8,26,57.8,57.8S202.1,349,170.2,349z
	 M170.2,236.3c-30.2,0-54.8,24.6-54.8,54.8S140,346,170.2,346c30.2,0,54.8-24.6,54.8-54.8S200.5,236.3,170.2,236.3z"/>
<path fill="#FFFFFF" d="M140.1,340.5c-0.9-26.5,2.1-63.1,21.4-87.1c11.7-14.5,23.7-17.5,24.2-17.6l0.7,2.9
	c-0.1,0-11.7,2.9-22.8,16.7c-18.6,23.3-21.4,59-20.5,84.9L140.1,340.5z"/>
<path fill="#FFFFFF" d="M152.4,346.2l-1.3-2.7c0.1-0.1,13.4-6.8,24.9-22.9c10.6-14.8,21.7-40.8,14.8-80.5l3-0.5
	c7.1,40.8-4.5,67.6-15.4,82.9C166.4,339,153,345.9,152.4,346.2z"/>
<rect x="112" y="290.1" transform="matrix(0.9347 0.3554 -0.3554 0.9347 114.672 -41.0315)" fill="#FFFFFF" width="113.9" height="3"/>
<path fill="#FFFFFF" d="M201.1,276.7c-16.5,0-28.7-6.6-36.8-13.2c-12.5-10.2-18.2-22.5-18.4-23l2.7-1.2c0.1,0.1,5.7,12.3,17.7,22
	c16,13,35.2,15.9,57,8.7l0.9,2.8C215.8,275.6,208.1,276.7,201.1,276.7z"/>
<path fill="#FFFFFF" d="M201.6,341.3c-20.6-22.9-42.7-30.1-57.6-32.1c-16.2-2.2-27.7,1-27.8,1.1l-0.8-2.9c0.5-0.1,12.1-3.4,28.9-1.2
	c15.5,2.1,38.4,9.5,59.6,33.1L201.6,341.3z"/>
</svg>
