<?xml version="1.0" encoding="utf-8"?>
<!-- Generator: Adobe Illustrator 18.0.0, SVG Export Plug-In . SVG Version: 6.00 Build 0)  -->
<!DOCTYPE svg PUBLIC "-//W3C//DTD SVG 1.1//EN" "http://www.w3.org/Graphics/SVG/1.1/DTD/svg11.dtd">
<svg version="1.1" id="Layer_1" xmlns="http://www.w3.org/2000/svg" xmlns:xlink="http://www.w3.org/1999/xlink" x="0px" y="0px"
	 viewBox="0 0 1224 792" enable-background="new 0 0 1224 792" xml:space="preserve">
<g>
	<polygon fill="#F5A503" points="430.3,187.4 363.1,114.3 436.7,181.1 	"/>
</g>
<g>
	<polygon fill="#F5A503" points="611.1,149.3 615.6,61.8 620.1,149.3 	"/>
</g>
<g>
	<polygon fill="#F5A503" points="780.4,180.9 859.7,114.3 786.5,187.6 	"/>
</g>
<g>
	<polygon fill="#F5A503" points="857.7,313.9 944.9,277.1 861.6,322 	"/>
</g>
<g>
	<polygon fill="#F5A503" points="858.7,452.9 942.2,492.9 855.2,461.2 	"/>
</g>
<g>
	<polygon fill="#F5A503" points="778.7,573.9 857,631.5 773.7,581.4 	"/>
</g>
<g>
	<polygon fill="#F5A503" points="378,322.1 273.8,277.1 381.3,313.7 	"/>
</g>
<g>
	<polygon fill="#F5A503" points="364.8,442.8 273.8,475 361.4,434.4 	"/>
</g>
<g>
	<polygon fill="#F5A503" points="436.2,581.3 363.1,631.5 430.8,574.1 	"/>
</g>
<g>
	<polygon fill="#F5A503" points="543.6,633 505.3,730.2 535.1,630.1 	"/>
</g>
<g>
	<polygon fill="#F5A503" points="671,630 702.7,730.2 662.5,633.1 	"/>
</g>
<circle fill="#F5A503" cx="612" cy="379.8" r="204.2"/>
</svg>
