<?xml version="1.0" encoding="utf-8"?>
<!-- Generator: Adobe Illustrator 18.0.0, SVG Export Plug-In . SVG Version: 6.00 Build 0)  -->
<!DOCTYPE svg PUBLIC "-//W3C//DTD SVG 1.1//EN" "http://www.w3.org/Graphics/SVG/1.1/DTD/svg11.dtd">
<svg version="1.1" id="Layer_1" xmlns="http://www.w3.org/2000/svg" xmlns:xlink="http://www.w3.org/1999/xlink" x="0px" y="0px"
	 viewBox="-4.8 678.2 648.1 105.9" enable-background="new -4.8 678.2 648.1 105.9" xml:space="preserve">
<path fill="#5CC3B6" d="M643.3,678.2v103.3H-4.8V678.2h0.9c11.3,0,124.6,0.2,153.5,6.2c30.6,6.3,89.7,9.6,118.3,3.2
	c28.6-6.4,126.2-10.5,205-1.1s149.8-8.3,149.8-8.3H643.3z"/>
<rect x="-4.8" y="718.8" fill="#AA844F" width="648" height="65.3"/>
<ellipse fill="#BC915D" stroke="#BC915D" stroke-miterlimit="10" cx="213.5" cy="736" rx="1.5" ry="1.7"/>
<ellipse fill="#BC915D" stroke="#BC915D" stroke-miterlimit="10" cx="219.6" cy="734.3" rx="1.5" ry="1.7"/>
<ellipse fill="#BC915D" stroke="#BC915D" stroke-miterlimit="10" cx="218" cy="739.4" rx="1.5" ry="1.7"/>
<ellipse fill="#BC915D" stroke="#BC915D" stroke-miterlimit="10" cx="208.8" cy="767.8" rx="1.5" ry="1.7"/>
<ellipse fill="#BC915D" stroke="#BC915D" stroke-miterlimit="10" cx="214.9" cy="766.1" rx="1.5" ry="1.7"/>
<ellipse fill="#BC915D" stroke="#BC915D" stroke-miterlimit="10" cx="213.4" cy="771.2" rx="1.5" ry="1.7"/>
<ellipse fill="#BC915D" stroke="#BC915D" stroke-miterlimit="10" cx="216.4" cy="746" rx="1.5" ry="1.7"/>
<ellipse fill="#BC915D" stroke="#BC915D" stroke-miterlimit="10" cx="211.9" cy="752.8" rx="1.5" ry="1.7"/>
<ellipse fill="#BC915D" stroke="#BC915D" stroke-miterlimit="10" cx="201.4" cy="751.1" rx="1.5" ry="1.7"/>
<ellipse fill="#BC915D" stroke="#BC915D" stroke-miterlimit="10" cx="204.2" cy="744.4" rx="1.5" ry="1.7"/>
<ellipse fill="#BC915D" stroke="#BC915D" stroke-miterlimit="10" cx="210.3" cy="742.8" rx="1.5" ry="1.7"/>
<ellipse fill="#BC915D" stroke="#BC915D" stroke-miterlimit="10" cx="208.9" cy="747.8" rx="1.5" ry="1.7"/>
<ellipse transform="matrix(0.6704 0.742 -0.742 0.6704 685.0208 -8.0018)" fill="#BC915D" stroke="#BC915D" stroke-miterlimit="10" cx="351.5" cy="767.1" rx="1.5" ry="1.7"/>
<ellipse transform="matrix(0.6704 0.742 -0.742 0.6704 689.2628 -10.8396)" fill="#BC915D" stroke="#BC915D" stroke-miterlimit="10" cx="356.8" cy="770.4" rx="1.5" ry="1.7"/>
<ellipse transform="matrix(0.6704 0.742 -0.742 0.6704 689.4276 -6.5038)" fill="#BC915D" stroke="#BC915D" stroke-miterlimit="10" cx="352" cy="772.8" rx="1.5" ry="1.7"/>
<ellipse transform="matrix(0.6704 0.742 -0.742 0.6704 696.0075 -72.138)" fill="#BC915D" stroke="#BC915D" stroke-miterlimit="10" cx="429.2" cy="747.4" rx="1.5" ry="1.7"/>
<ellipse transform="matrix(0.6704 0.742 -0.742 0.6704 700.3502 -74.9247)" fill="#BC915D" stroke="#BC915D" stroke-miterlimit="10" cx="434.5" cy="750.9" rx="1.5" ry="1.7"/>
<ellipse transform="matrix(0.6704 0.742 -0.742 0.6704 700.4652 -70.6501)" fill="#BC915D" stroke="#BC915D" stroke-miterlimit="10" cx="429.8" cy="753.1" rx="1.5" ry="1.7"/>
<ellipse transform="matrix(0.6704 0.742 -0.742 0.6704 689.7652 -0.9492)" fill="#BC915D" stroke="#BC915D" stroke-miterlimit="10" cx="346" cy="775.9" rx="1.5" ry="1.7"/>
<ellipse transform="matrix(0.6704 0.742 -0.742 0.6704 688.0681 5.3543)" fill="#BC915D" stroke="#BC915D" stroke-miterlimit="10" cx="338" cy="777.2" rx="1.5" ry="1.7"/>
<ellipse transform="matrix(0.6704 0.742 -0.742 0.6704 679.4256 6.7672)" fill="#BC915D" stroke="#BC915D" stroke-miterlimit="10" cx="332.1" cy="768.1" rx="1.5" ry="1.7"/>
<ellipse transform="matrix(0.6704 0.742 -0.742 0.6704 680.0302 0.8027)" fill="#BC915D" stroke="#BC915D" stroke-miterlimit="10" cx="339.1" cy="765.8" rx="1.5" ry="1.7"/>
<ellipse transform="matrix(0.6704 0.742 -0.742 0.6704 684.2719 -2.0349)" fill="#BC915D" stroke="#BC915D" stroke-miterlimit="10" cx="344.4" cy="769.2" rx="1.5" ry="1.7"/>
<ellipse transform="matrix(0.6704 0.742 -0.742 0.6704 684.4369 2.3008)" fill="#BC915D" stroke="#BC915D" stroke-miterlimit="10" cx="339.6" cy="771.6" rx="1.5" ry="1.7"/>
<ellipse transform="matrix(0.6704 0.742 -0.742 0.6704 628.2439 57.4644)" fill="#BC915D" stroke="#BC915D" stroke-miterlimit="10" cx="249.4" cy="735.9" rx="1.5" ry="1.7"/>
<ellipse transform="matrix(0.6704 0.742 -0.742 0.6704 632.5867 54.6778)" fill="#BC915D" stroke="#BC915D" stroke-miterlimit="10" cx="254.7" cy="739.4" rx="1.5" ry="1.7"/>
<ellipse transform="matrix(0.6704 0.742 -0.742 0.6704 632.7017 58.9523)" fill="#BC915D" stroke="#BC915D" stroke-miterlimit="10" cx="250" cy="741.6" rx="1.5" ry="1.7"/>
<ellipse transform="matrix(0.6704 0.742 -0.742 0.6704 632.7144 83.255)" fill="#BC915D" stroke="#BC915D" stroke-miterlimit="10" cx="222.6" cy="753.8" rx="1.5" ry="1.7"/>
<ellipse transform="matrix(0.6704 0.742 -0.742 0.6704 636.9561 80.4172)" fill="#BC915D" stroke="#BC915D" stroke-miterlimit="10" cx="228" cy="757.2" rx="1.5" ry="1.7"/>
<ellipse transform="matrix(0.6704 0.742 -0.742 0.6704 637.1472 84.667)" fill="#BC915D" stroke="#BC915D" stroke-miterlimit="10" cx="223.3" cy="759.5" rx="1.5" ry="1.7"/>
<ellipse transform="matrix(0.6704 0.742 -0.742 0.6704 633.013 64.593)" fill="#BC915D" stroke="#BC915D" stroke-miterlimit="10" cx="243.8" cy="744.8" rx="1.5" ry="1.7"/>
<ellipse transform="matrix(0.6704 0.742 -0.742 0.6704 631.392 70.8717)" fill="#BC915D" stroke="#BC915D" stroke-miterlimit="10" cx="235.9" cy="746.1" rx="1.5" ry="1.7"/>
<ellipse transform="matrix(0.6704 0.742 -0.742 0.6704 622.7495 72.2846)" fill="#BC915D" stroke="#BC915D" stroke-miterlimit="10" cx="230" cy="737.1" rx="1.5" ry="1.7"/>
<ellipse transform="matrix(0.6704 0.742 -0.742 0.6704 623.278 66.3449)" fill="#BC915D" stroke="#BC915D" stroke-miterlimit="10" cx="237" cy="734.7" rx="1.5" ry="1.7"/>
<ellipse transform="matrix(0.6704 0.742 -0.742 0.6704 627.5096 63.4562)" fill="#BC915D" stroke="#BC915D" stroke-miterlimit="10" cx="242.3" cy="738.1" rx="1.5" ry="1.7"/>
<ellipse transform="matrix(0.6704 0.742 -0.742 0.6704 627.7108 67.757)" fill="#BC915D" stroke="#BC915D" stroke-miterlimit="10" cx="237.6" cy="740.4" rx="1.5" ry="1.7"/>
<ellipse transform="matrix(-0.958 -0.2869 0.2869 -0.958 -165.6947 1470.1584)" fill="#BC915D" stroke="#BC915D" stroke-miterlimit="10" cx="24.9" cy="747.2" rx="3.8" ry="1.7"/>
<ellipse transform="matrix(-0.958 -0.2869 0.2869 -0.958 -192.8028 1453.8159)" fill="#BC915D" stroke="#BC915D" stroke-miterlimit="10" cx="10.1" cy="741" rx="3.8" ry="1.7"/>
<ellipse transform="matrix(-0.958 -0.2869 0.2869 -0.958 -189.9996 1466.1096)" fill="#BC915D" stroke="#BC915D" stroke-miterlimit="10" cx="12.4" cy="747" rx="3.8" ry="1.7"/>
<ellipse transform="matrix(-0.958 -0.2869 0.2869 -0.958 -170.3361 1537.4291)" fill="#BC915D" stroke="#BC915D" stroke-miterlimit="10" cx="27.5" cy="781.2" rx="3.8" ry="1.7"/>
<ellipse transform="matrix(-0.958 -0.2869 0.2869 -0.958 -197.4575 1521.0554)" fill="#BC915D" stroke="#BC915D" stroke-miterlimit="10" cx="12.7" cy="775" rx="3.8" ry="1.7"/>
<ellipse transform="matrix(-0.958 -0.2869 0.2869 -0.958 -194.7367 1533.5259)" fill="#BC915D" stroke="#BC915D" stroke-miterlimit="10" cx="15" cy="781" rx="3.8" ry="1.7"/>
<ellipse transform="matrix(-0.958 -0.2869 0.2869 -0.958 -187.5798 1481.9265)" fill="#BC915D" stroke="#BC915D" stroke-miterlimit="10" cx="14.8" cy="754.7" rx="3.8" ry="1.7"/>
<ellipse transform="matrix(-0.958 -0.2869 0.2869 -0.958 -172.4932 1503.6171)" fill="#BC915D" stroke="#BC915D" stroke-miterlimit="10" cx="23.9" cy="764.4" rx="3.8" ry="1.7"/>
<ellipse transform="matrix(-0.958 -0.2869 0.2869 -0.958 -121.4788 1523.668)" fill="#BC915D" stroke="#BC915D" stroke-miterlimit="10" cx="50.9" cy="770.7" rx="3.8" ry="1.7"/>
<ellipse transform="matrix(-0.958 -0.2869 0.2869 -0.958 -129.5646 1505.252)" fill="#BC915D" stroke="#BC915D" stroke-miterlimit="10" cx="45.5" cy="762.1" rx="3.8" ry="1.7"/>
<ellipse transform="matrix(-0.958 -0.2869 0.2869 -0.958 -156.7688 1489.0549)" fill="#BC915D" stroke="#BC915D" stroke-miterlimit="10" cx="30.7" cy="756" rx="3.8" ry="1.7"/>
<ellipse transform="matrix(-0.958 -0.2869 0.2869 -0.958 -154.0213 1501.2413)" fill="#BC915D" stroke="#BC915D" stroke-miterlimit="10" cx="33" cy="761.9" rx="3.8" ry="1.7"/>
</svg>
