<?xml version="1.0" encoding="utf-8"?>
<!-- Generator: Adobe Illustrator 18.0.0, SVG Export Plug-In . SVG Version: 6.00 Build 0)  -->
<!DOCTYPE svg PUBLIC "-//W3C//DTD SVG 1.1//EN" "http://www.w3.org/Graphics/SVG/1.1/DTD/svg11.dtd">
<svg version="1.1" id="Layer_1" xmlns="http://www.w3.org/2000/svg" xmlns:xlink="http://www.w3.org/1999/xlink" x="0px" y="0px"
	 viewBox="0 0 1224 166.5" enable-background="new 0 0 1224 166.5" xml:space="preserve">
<rect x="-9" y="-9" fill="#AA844F" width="1242" height="184.5"/>
<ellipse fill="#BC915D" stroke="#BC915D" stroke-miterlimit="10" cx="409.3" cy="24" rx="2.8" ry="3.2"/>
<ellipse fill="#BC915D" stroke="#BC915D" stroke-miterlimit="10" cx="421" cy="20.8" rx="2.8" ry="3.2"/>
<ellipse fill="#BC915D" stroke="#BC915D" stroke-miterlimit="10" cx="418.1" cy="30.5" rx="2.8" ry="3.2"/>
<ellipse fill="#BC915D" stroke="#BC915D" stroke-miterlimit="10" cx="400.3" cy="85" rx="2.8" ry="3.2"/>
<ellipse fill="#BC915D" stroke="#BC915D" stroke-miterlimit="10" cx="412" cy="81.8" rx="2.8" ry="3.2"/>
<ellipse fill="#BC915D" stroke="#BC915D" stroke-miterlimit="10" cx="409.1" cy="91.5" rx="2.8" ry="3.2"/>
<ellipse fill="#BC915D" stroke="#BC915D" stroke-miterlimit="10" cx="414.8" cy="43.3" rx="2.8" ry="3.2"/>
<ellipse fill="#BC915D" stroke="#BC915D" stroke-miterlimit="10" cx="406.3" cy="56.2" rx="2.8" ry="3.2"/>
<ellipse fill="#BC915D" stroke="#BC915D" stroke-miterlimit="10" cx="386" cy="53" rx="2.8" ry="3.2"/>
<ellipse fill="#BC915D" stroke="#BC915D" stroke-miterlimit="10" cx="391.6" cy="40.1" rx="2.8" ry="3.2"/>
<ellipse fill="#BC915D" stroke="#BC915D" stroke-miterlimit="10" cx="403.3" cy="36.9" rx="2.8" ry="3.2"/>
<ellipse fill="#BC915D" stroke="#BC915D" stroke-miterlimit="10" cx="400.5" cy="46.6" rx="2.8" ry="3.2"/>
<ellipse transform="matrix(-0.6704 -0.742 0.742 -0.6704 1063.4036 639.4349)" fill="#BC915D" stroke="#BC915D" stroke-miterlimit="10" cx="673.7" cy="83.6" rx="2.8" ry="3.2"/>
<ellipse transform="matrix(-0.6704 -0.742 0.742 -0.6704 1075.6466 657.8797)" fill="#BC915D" stroke="#BC915D" stroke-miterlimit="10" cx="683.9" cy="90.1" rx="2.8" ry="3.2"/>
<ellipse transform="matrix(-0.6704 -0.742 0.742 -0.6704 1057.2593 658.4872)" fill="#BC915D" stroke="#BC915D" stroke-miterlimit="10" cx="674.9" cy="94.4" rx="2.8" ry="3.2"/>
<ellipse transform="matrix(-0.6704 -0.742 0.742 -0.6704 952.3312 658.5402)" fill="#BC915D" stroke="#BC915D" stroke-miterlimit="10" cx="622.4" cy="117.8" rx="2.8" ry="3.2"/>
<ellipse transform="matrix(-0.6704 -0.742 0.742 -0.6704 964.5742 676.9849)" fill="#BC915D" stroke="#BC915D" stroke-miterlimit="10" cx="632.6" cy="124.3" rx="2.8" ry="3.2"/>
<ellipse transform="matrix(-0.6704 -0.742 0.742 -0.6704 946.1867 677.5925)" fill="#BC915D" stroke="#BC915D" stroke-miterlimit="10" cx="623.6" cy="128.7" rx="2.8" ry="3.2"/>
<ellipse transform="matrix(-0.6704 -0.742 0.742 -0.6704 1032.967 659.9821)" fill="#BC915D" stroke="#BC915D" stroke-miterlimit="10" cx="663.1" cy="100.6" rx="2.8" ry="3.2"/>
<ellipse transform="matrix(-0.6704 -0.742 0.742 -0.6704 1005.7758 652.634)" fill="#BC915D" stroke="#BC915D" stroke-miterlimit="10" cx="647.8" cy="103" rx="2.8" ry="3.2"/>
<ellipse transform="matrix(-0.6704 -0.742 0.742 -0.6704 999.7918 615.4866)" fill="#BC915D" stroke="#BC915D" stroke-miterlimit="10" cx="636.6" cy="85.7" rx="2.8" ry="3.2"/>
<ellipse transform="matrix(-0.6704 -0.742 0.742 -0.6704 1025.3783 617.9398)" fill="#BC915D" stroke="#BC915D" stroke-miterlimit="10" cx="649.9" cy="81.3" rx="2.8" ry="3.2"/>
<ellipse transform="matrix(-0.6704 -0.742 0.742 -0.6704 1037.6212 636.3845)" fill="#BC915D" stroke="#BC915D" stroke-miterlimit="10" cx="660.1" cy="87.8" rx="2.8" ry="3.2"/>
<ellipse transform="matrix(-0.6704 -0.742 0.742 -0.6704 1019.2339 636.9921)" fill="#BC915D" stroke="#BC915D" stroke-miterlimit="10" cx="651.1" cy="92.1" rx="2.8" ry="3.2"/>
<ellipse transform="matrix(-0.6704 -0.742 0.742 -0.6704 780.9544 394.661)" fill="#BC915D" stroke="#BC915D" stroke-miterlimit="10" cx="478.1" cy="23.9" rx="2.8" ry="3.2"/>
<ellipse transform="matrix(-0.6704 -0.742 0.742 -0.6704 793.1974 413.1058)" fill="#BC915D" stroke="#BC915D" stroke-miterlimit="10" cx="488.3" cy="30.4" rx="2.8" ry="3.2"/>
<ellipse transform="matrix(-0.6704 -0.742 0.742 -0.6704 774.81 413.7133)" fill="#BC915D" stroke="#BC915D" stroke-miterlimit="10" cx="479.3" cy="34.8" rx="2.8" ry="3.2"/>
<ellipse transform="matrix(-0.6704 -0.742 0.742 -0.6704 669.882 413.7663)" fill="#BC915D" stroke="#BC915D" stroke-miterlimit="10" cx="426.8" cy="58.1" rx="2.8" ry="3.2"/>
<ellipse transform="matrix(-0.6704 -0.742 0.742 -0.6704 682.125 432.211)" fill="#BC915D" stroke="#BC915D" stroke-miterlimit="10" cx="437" cy="64.6" rx="2.8" ry="3.2"/>
<ellipse transform="matrix(-0.6704 -0.742 0.742 -0.6704 663.7375 432.8186)" fill="#BC915D" stroke="#BC915D" stroke-miterlimit="10" cx="428" cy="69" rx="2.8" ry="3.2"/>
<ellipse transform="matrix(-0.6704 -0.742 0.742 -0.6704 750.5179 415.2082)" fill="#BC915D" stroke="#BC915D" stroke-miterlimit="10" cx="467.5" cy="40.9" rx="2.8" ry="3.2"/>
<ellipse transform="matrix(-0.6704 -0.742 0.742 -0.6704 723.3265 407.8601)" fill="#BC915D" stroke="#BC915D" stroke-miterlimit="10" cx="452.2" cy="43.3" rx="2.8" ry="3.2"/>
<ellipse transform="matrix(-0.6704 -0.742 0.742 -0.6704 717.3425 370.7127)" fill="#BC915D" stroke="#BC915D" stroke-miterlimit="10" cx="441" cy="26" rx="2.8" ry="3.2"/>
<ellipse transform="matrix(-0.6704 -0.742 0.742 -0.6704 742.9291 373.1659)" fill="#BC915D" stroke="#BC915D" stroke-miterlimit="10" cx="454.3" cy="21.6" rx="2.8" ry="3.2"/>
<ellipse transform="matrix(-0.6704 -0.742 0.742 -0.6704 755.1721 391.6106)" fill="#BC915D" stroke="#BC915D" stroke-miterlimit="10" cx="464.6" cy="28.1" rx="2.8" ry="3.2"/>
<ellipse transform="matrix(-0.6704 -0.742 0.742 -0.6704 736.7846 392.2182)" fill="#BC915D" stroke="#BC915D" stroke-miterlimit="10" cx="455.5" cy="32.5" rx="2.8" ry="3.2"/>
<ellipse transform="matrix(0.958 0.2869 -0.2869 0.958 15.0485 -11.7911)" fill="#BC915D" stroke="#BC915D" stroke-miterlimit="10" cx="47.8" cy="45.5" rx="7.3" ry="3.2"/>
<ellipse transform="matrix(0.958 0.2869 -0.2869 0.958 10.4732 -4.1909)" fill="#BC915D" stroke="#BC915D" stroke-miterlimit="10" cx="19.5" cy="33.6" rx="7.3" ry="3.2"/>
<ellipse transform="matrix(0.958 0.2869 -0.2869 0.958 13.9122 -4.9365)" fill="#BC915D" stroke="#BC915D" stroke-miterlimit="10" cx="23.8" cy="45" rx="7.3" ry="3.2"/>
<ellipse transform="matrix(0.958 0.2869 -0.2869 0.958 33.9507 -10.478)" fill="#BC915D" stroke="#BC915D" stroke-miterlimit="10" cx="52.7" cy="110.6" rx="7.3" ry="3.2"/>
<ellipse transform="matrix(0.958 0.2869 -0.2869 0.958 29.3754 -2.8779)" fill="#BC915D" stroke="#BC915D" stroke-miterlimit="10" cx="24.5" cy="98.8" rx="7.3" ry="3.2"/>
<ellipse transform="matrix(0.958 0.2869 -0.2869 0.958 32.8144 -3.6235)" fill="#BC915D" stroke="#BC915D" stroke-miterlimit="10" cx="28.8" cy="110.2" rx="7.3" ry="3.2"/>
<ellipse transform="matrix(0.958 0.2869 -0.2869 0.958 18.3716 -5.6607)" fill="#BC915D" stroke="#BC915D" stroke-miterlimit="10" cx="28.5" cy="59.9" rx="7.3" ry="3.2"/>
<ellipse transform="matrix(0.958 0.2869 -0.2869 0.958 24.4571 -9.8711)" fill="#BC915D" stroke="#BC915D" stroke-miterlimit="10" cx="45.9" cy="78.5" rx="7.3" ry="3.2"/>
<ellipse transform="matrix(0.958 0.2869 -0.2869 0.958 30.1043 -24.1879)" fill="#BC915D" stroke="#BC915D" stroke-miterlimit="10" cx="97.6" cy="90.6" rx="7.3" ry="3.2"/>
<ellipse transform="matrix(0.958 0.2869 -0.2869 0.958 24.919 -21.9073)" fill="#BC915D" stroke="#BC915D" stroke-miterlimit="10" cx="87.2" cy="74.1" rx="7.3" ry="3.2"/>
<ellipse transform="matrix(0.958 0.2869 -0.2869 0.958 20.3437 -14.3071)" fill="#BC915D" stroke="#BC915D" stroke-miterlimit="10" cx="59" cy="62.3" rx="7.3" ry="3.2"/>
<ellipse transform="matrix(0.958 0.2869 -0.2869 0.958 23.7827 -15.0527)" fill="#BC915D" stroke="#BC915D" stroke-miterlimit="10" cx="63.3" cy="73.6" rx="7.3" ry="3.2"/>
</svg>
