<?xml version="1.0" encoding="utf-8"?>
<!-- Generator: Adobe Illustrator 18.0.0, SVG Export Plug-In . SVG Version: 6.00 Build 0)  -->
<!DOCTYPE svg PUBLIC "-//W3C//DTD SVG 1.1//EN" "http://www.w3.org/Graphics/SVG/1.1/DTD/svg11.dtd">
<svg version="1.1" id="Layer_1" xmlns="http://www.w3.org/2000/svg" xmlns:xlink="http://www.w3.org/1999/xlink" x="0px" y="0px"
	 viewBox="-4.8 288 657.5 192.8" enable-background="new -4.8 288 657.5 192.8" xml:space="preserve">
<path fill="#5CC3B6" d="M652.8,342v104.8H-4.8V342h0.9c11.5,0,126.4,0.2,155.8,6.3c31,6.4,91,9.7,120,3.2s128-10.7,208-1.1
	s152-8.4,152-8.4H652.8z"/>
<rect x="-4.8" y="383.2" fill="#AA844F" width="657.5" height="97.7"/>
<ellipse fill="#BC915D" stroke="#BC915D" stroke-miterlimit="10" cx="216.7" cy="400.6" rx="1.5" ry="1.7"/>
<ellipse fill="#BC915D" stroke="#BC915D" stroke-miterlimit="10" cx="222.9" cy="398.9" rx="1.5" ry="1.7"/>
<ellipse fill="#BC915D" stroke="#BC915D" stroke-miterlimit="10" cx="221.3" cy="404.1" rx="1.5" ry="1.7"/>
<ellipse fill="#BC915D" stroke="#BC915D" stroke-miterlimit="10" cx="211.9" cy="432.9" rx="1.5" ry="1.7"/>
<ellipse fill="#BC915D" stroke="#BC915D" stroke-miterlimit="10" cx="218.1" cy="431.2" rx="1.5" ry="1.7"/>
<ellipse fill="#BC915D" stroke="#BC915D" stroke-miterlimit="10" cx="216.6" cy="436.4" rx="1.5" ry="1.7"/>
<ellipse fill="#BC915D" stroke="#BC915D" stroke-miterlimit="10" cx="219.6" cy="410.8" rx="1.5" ry="1.7"/>
<ellipse fill="#BC915D" stroke="#BC915D" stroke-miterlimit="10" cx="215.1" cy="417.7" rx="1.5" ry="1.7"/>
<ellipse fill="#BC915D" stroke="#BC915D" stroke-miterlimit="10" cx="204.4" cy="416" rx="1.5" ry="1.7"/>
<ellipse fill="#BC915D" stroke="#BC915D" stroke-miterlimit="10" cx="207.3" cy="409.2" rx="1.5" ry="1.7"/>
<ellipse fill="#BC915D" stroke="#BC915D" stroke-miterlimit="10" cx="213.5" cy="407.5" rx="1.5" ry="1.7"/>
<ellipse fill="#BC915D" stroke="#BC915D" stroke-miterlimit="10" cx="212" cy="412.6" rx="1.5" ry="1.7"/>
<ellipse transform="matrix(-0.742 0.6704 -0.6704 -0.742 911.0923 513.6395)" fill="#BC915D" stroke="#BC915D" stroke-miterlimit="10" cx="356.7" cy="432.1" rx="1.7" ry="1.5"/>
<ellipse transform="matrix(-0.742 0.6704 -0.6704 -0.742 922.8386 516.0214)" fill="#BC915D" stroke="#BC915D" stroke-miterlimit="10" cx="362.1" cy="435.6" rx="1.7" ry="1.5"/>
<ellipse transform="matrix(-0.742 0.6704 -0.6704 -0.742 915.9506 523.3339)" fill="#BC915D" stroke="#BC915D" stroke-miterlimit="10" cx="357.3" cy="437.9" rx="1.7" ry="1.5"/>
<ellipse transform="matrix(-0.742 0.6704 -0.6704 -0.742 875.9307 563.4279)" fill="#BC915D" stroke="#BC915D" stroke-miterlimit="10" cx="329.5" cy="450.3" rx="1.7" ry="1.5"/>
<ellipse transform="matrix(-0.742 0.6704 -0.6704 -0.742 887.677 565.8096)" fill="#BC915D" stroke="#BC915D" stroke-miterlimit="10" cx="335" cy="453.7" rx="1.7" ry="1.5"/>
<ellipse transform="matrix(-0.742 0.6704 -0.6704 -0.742 880.8336 573.0341)" fill="#BC915D" stroke="#BC915D" stroke-miterlimit="10" cx="330.2" cy="456" rx="1.7" ry="1.5"/>
<ellipse transform="matrix(-0.742 0.6704 -0.6704 -0.742 907.2486 533.1354)" fill="#BC915D" stroke="#BC915D" stroke-miterlimit="10" cx="351" cy="441.1" rx="1.7" ry="1.5"/>
<ellipse transform="matrix(-0.742 0.6704 -0.6704 -0.742 894.1239 540.7228)" fill="#BC915D" stroke="#BC915D" stroke-miterlimit="10" cx="343" cy="442.4" rx="1.7" ry="1.5"/>
<ellipse transform="matrix(-0.742 0.6704 -0.6704 -0.742 877.573 528.8392)" fill="#BC915D" stroke="#BC915D" stroke-miterlimit="10" cx="337" cy="433.3" rx="1.7" ry="1.5"/>
<ellipse transform="matrix(-0.742 0.6704 -0.6704 -0.742 888.351 519.9631)" fill="#BC915D" stroke="#BC915D" stroke-miterlimit="10" cx="344.1" cy="430.9" rx="1.7" ry="1.5"/>
<ellipse transform="matrix(-0.742 0.6704 -0.6704 -0.742 900.097 522.3448)" fill="#BC915D" stroke="#BC915D" stroke-miterlimit="10" cx="349.5" cy="434.4" rx="1.7" ry="1.5"/>
<ellipse transform="matrix(-0.742 0.6704 -0.6704 -0.742 893.2092 529.6574)" fill="#BC915D" stroke="#BC915D" stroke-miterlimit="10" cx="344.7" cy="436.7" rx="1.7" ry="1.5"/>
<ellipse transform="matrix(-0.742 0.6704 -0.6704 -0.742 709.5294 528.0875)" fill="#BC915D" stroke="#BC915D" stroke-miterlimit="10" cx="253.1" cy="400.6" rx="1.7" ry="1.5"/>
<ellipse transform="matrix(-0.742 0.6704 -0.6704 -0.742 721.2756 530.4693)" fill="#BC915D" stroke="#BC915D" stroke-miterlimit="10" cx="258.6" cy="404" rx="1.7" ry="1.5"/>
<ellipse transform="matrix(-0.742 0.6704 -0.6704 -0.742 714.4323 537.6937)" fill="#BC915D" stroke="#BC915D" stroke-miterlimit="10" cx="253.8" cy="406.3" rx="1.7" ry="1.5"/>
<ellipse transform="matrix(-0.742 0.6704 -0.6704 -0.742 674.3678 577.8757)" fill="#BC915D" stroke="#BC915D" stroke-miterlimit="10" cx="226" cy="418.7" rx="1.7" ry="1.5"/>
<ellipse transform="matrix(-0.742 0.6704 -0.6704 -0.742 686.114 580.2574)" fill="#BC915D" stroke="#BC915D" stroke-miterlimit="10" cx="231.4" cy="422.2" rx="1.7" ry="1.5"/>
<ellipse transform="matrix(-0.742 0.6704 -0.6704 -0.742 679.2705 587.482)" fill="#BC915D" stroke="#BC915D" stroke-miterlimit="10" cx="226.6" cy="424.4" rx="1.7" ry="1.5"/>
<ellipse transform="matrix(-0.742 0.6704 -0.6704 -0.742 705.6856 547.5832)" fill="#BC915D" stroke="#BC915D" stroke-miterlimit="10" cx="247.5" cy="409.6" rx="1.7" ry="1.5"/>
<ellipse transform="matrix(-0.742 0.6704 -0.6704 -0.742 692.5608 555.1708)" fill="#BC915D" stroke="#BC915D" stroke-miterlimit="10" cx="239.5" cy="410.8" rx="1.7" ry="1.5"/>
<ellipse transform="matrix(-0.742 0.6704 -0.6704 -0.742 676.0099 543.2871)" fill="#BC915D" stroke="#BC915D" stroke-miterlimit="10" cx="233.5" cy="401.7" rx="1.7" ry="1.5"/>
<ellipse transform="matrix(-0.742 0.6704 -0.6704 -0.742 686.788 534.4109)" fill="#BC915D" stroke="#BC915D" stroke-miterlimit="10" cx="240.6" cy="399.4" rx="1.7" ry="1.5"/>
<ellipse transform="matrix(-0.742 0.6704 -0.6704 -0.742 698.446 536.748)" fill="#BC915D" stroke="#BC915D" stroke-miterlimit="10" cx="245.9" cy="402.8" rx="1.7" ry="1.5"/>
<ellipse transform="matrix(-0.742 0.6704 -0.6704 -0.742 691.6907 544.0172)" fill="#BC915D" stroke="#BC915D" stroke-miterlimit="10" cx="241.2" cy="405.1" rx="1.7" ry="1.5"/>
<ellipse transform="matrix(0.2869 -0.958 0.958 0.2869 -376.6602 318.052)" fill="#BC915D" stroke="#BC915D" stroke-miterlimit="10" cx="25.3" cy="412" rx="1.7" ry="3.9"/>
<ellipse transform="matrix(0.2869 -0.958 0.958 0.2869 -381.2889 299.2135)" fill="#BC915D" stroke="#BC915D" stroke-miterlimit="10" cx="10.3" cy="405.7" rx="1.7" ry="3.9"/>
<ellipse transform="matrix(0.2869 -0.958 0.958 0.2869 -385.4565 305.6954)" fill="#BC915D" stroke="#BC915D" stroke-miterlimit="10" cx="12.6" cy="411.8" rx="1.7" ry="3.9"/>
<ellipse transform="matrix(0.2869 -0.958 0.958 0.2869 -407.8112 345.1182)" fill="#BC915D" stroke="#BC915D" stroke-miterlimit="10" cx="27.9" cy="446.5" rx="1.7" ry="3.9"/>
<ellipse transform="matrix(0.2869 -0.958 0.958 0.2869 -412.4777 326.3607)" fill="#BC915D" stroke="#BC915D" stroke-miterlimit="10" cx="13" cy="440.2" rx="1.7" ry="3.9"/>
<ellipse transform="matrix(0.2869 -0.958 0.958 0.2869 -416.6453 332.8426)" fill="#BC915D" stroke="#BC915D" stroke-miterlimit="10" cx="15.2" cy="446.3" rx="1.7" ry="3.9"/>
<ellipse transform="matrix(0.2869 -0.958 0.958 0.2869 -391.2428 313.6971)" fill="#BC915D" stroke="#BC915D" stroke-miterlimit="10" cx="15.1" cy="419.6" rx="1.7" ry="3.9"/>
<ellipse transform="matrix(0.2869 -0.958 0.958 0.2869 -394.1002 329.5532)" fill="#BC915D" stroke="#BC915D" stroke-miterlimit="10" cx="24.3" cy="429.5" rx="1.7" ry="3.9"/>
<ellipse transform="matrix(0.2869 -0.958 0.958 0.2869 -380.7208 360.3464)" fill="#BC915D" stroke="#BC915D" stroke-miterlimit="10" cx="51.7" cy="435.9" rx="1.7" ry="3.9"/>
<ellipse transform="matrix(0.2869 -0.958 0.958 0.2869 -376.2794 348.8315)" fill="#BC915D" stroke="#BC915D" stroke-miterlimit="10" cx="46.2" cy="427.2" rx="1.7" ry="3.9"/>
<ellipse transform="matrix(0.2869 -0.958 0.958 0.2869 -380.946 330.074)" fill="#BC915D" stroke="#BC915D" stroke-miterlimit="10" cx="31.2" cy="420.9" rx="1.7" ry="3.9"/>
<ellipse transform="matrix(0.2869 -0.958 0.958 0.2869 -385.0541 336.5343)" fill="#BC915D" stroke="#BC915D" stroke-miterlimit="10" cx="33.5" cy="426.9" rx="1.7" ry="3.9"/>
<line fill="none" x1="328" y1="597" x2="328" y2="598"/>
</svg>
