<?xml version="1.0" encoding="utf-8"?>
<!-- Generator: Adobe Illustrator 18.0.0, SVG Export Plug-In . SVG Version: 6.00 Build 0)  -->
<!DOCTYPE svg PUBLIC "-//W3C//DTD SVG 1.1//EN" "http://www.w3.org/Graphics/SVG/1.1/DTD/svg11.dtd">
<svg version="1.1" id="Layer_1" xmlns="http://www.w3.org/2000/svg" xmlns:xlink="http://www.w3.org/1999/xlink" x="0px" y="0px"
	 viewBox="0 0 100.6 108.8" enable-background="new 0 0 100.6 108.8" xml:space="preserve">
<path fill="#703131" d="M31,45.5c0,0-4-46,2.5-45.5s23,31.4,24.5,37.4c0,0,31.5-13.9,39-12.2C104.5,27,78.5,57,78.5,57
	s23.5,20.3,22,25.6C99,88,69.5,85,61,77.8c0,0-8,35.8-16.5,30.5S35,77.8,35,77.8S-1,64.3,0,54.4S31,45.5,31,45.5z"/>
<path fill="#884142" d="M33.6,49.7c0,0-3.1-35.7,1.9-35.3c5,0.4,17.9,24.4,19,29.1c0,0,24.5-10.8,30.3-9.4
	c5.8,1.3-14.4,24.6-14.4,24.6s18.2,15.7,17.1,19.9s-24.1,1.8-30.7-3.8c0,0-6.2,27.8-12.8,23.7s-7.4-23.7-7.4-23.7S8.7,64.3,9.5,56.6
	C10.3,48.9,33.6,49.7,33.6,49.7z"/>
<path fill="#703131" d="M40,29l5,25.4l-26.5,2.2c0,0,25.5,3.4,26.5,3.4s0,23.6,0,23.6L50.3,64L74,71.7L53.5,59.5l20.5-16L50.3,54.4
	L40,29z"/>
</svg>
