<?xml version="1.0" encoding="utf-8"?>
<!-- Generator: Adobe Illustrator 18.0.0, SVG Export Plug-In . SVG Version: 6.00 Build 0)  -->
<!DOCTYPE svg PUBLIC "-//W3C//DTD SVG 1.1//EN" "http://www.w3.org/Graphics/SVG/1.1/DTD/svg11.dtd">
<svg version="1.1" id="Layer_1" xmlns="http://www.w3.org/2000/svg" xmlns:xlink="http://www.w3.org/1999/xlink" x="0px" y="0px"
	 viewBox="0 0 648 864" enable-background="new 0 0 648 864" xml:space="preserve">
<path fill="#BA6A6A" d="M199.7,374.7c0,0-25.8-296.3,16.1-293.1s148.2,202.3,157.8,240.9c0,0,202.9-89.5,251.2-78.6
	c48.3,11.6-119.2,204.8-119.2,204.8S657,579.5,647.4,613.6c-9.7,34.8-199.7,15.5-254.4-30.9c0,0-51.5,230.6-106.3,196.5
	c-54.8-34.1-61.2-196.5-61.2-196.5S-6.4,495.8,0,432S199.7,374.7,199.7,374.7z"/>
<path fill="#F79A9A" d="M216.4,401.7c0,0-20-230,12.2-227.4c32.2,2.6,115.3,157.2,122.4,187.4c0,0,157.8-69.6,195.2-60.5
	c37.4,8.4-92.8,158.5-92.8,158.5s117.2,101.1,110.1,128.2s-155.2,11.6-197.7-24.5c0,0-39.9,179.1-82.4,152.7s-47.7-152.7-47.7-152.7
	S56,495.8,61.2,446.2C66.3,396.6,216.4,401.7,216.4,401.7z"/>
<path fill="#BA6A6A" d="M257.7,268.4L289.9,432l-170.7,14.2c0,0,164.3,21.9,170.7,21.9s0,152,0,152L324,493.8l152.7,49.6l-132-78.6
	l132-103.1L324,432L257.7,268.4z"/>
<path fill="#F27C77" d="M-269.9,665.7l-195.6-67.3c-19-6.5-29-27.2-22.5-46.1l114.1-331.7c6.5-19,27.2-29,46.1-22.5l195.6,67.3
	c19,6.5,29,27.2,22.5,46.1l-114.1,331.7C-230.3,662.1-251,672.2-269.9,665.7z"/>
</svg>
